<svg width="20" height="21" viewBox="0 0 20 21" fill="none" xmlns="http://www.w3.org/2000/svg">
<path d="M17 3.41006C16.0832 2.48399 14.9912 1.74973 13.7876 1.25011C12.5841 0.750494 11.2931 0.49552 9.99 0.50006C4.53 0.50006 0.0800002 4.95006 0.0800002 10.4101C0.0800002 12.1601 0.54 13.8601 1.4 15.3601L0 20.5001L5.25 19.1201C6.7 19.9101 8.33 20.3301 9.99 20.3301C15.45 20.3301 19.9 15.8801 19.9 10.4201C19.9 7.77006 18.87 5.28006 17 3.41006ZM9.99 18.6501C8.51 18.6501 7.06 18.2501 5.79 17.5001L5.49 17.3201L2.37 18.1401L3.2 15.1001L3 14.7901C2.17775 13.477 1.74114 11.9593 1.74 10.4101C1.74 5.87006 5.44 2.17006 9.98 2.17006C12.18 2.17006 14.25 3.03006 15.8 4.59006C16.5675 5.35402 17.1757 6.26272 17.5894 7.26348C18.0031 8.26425 18.214 9.33717 18.21 10.4201C18.23 14.9601 14.53 18.6501 9.99 18.6501ZM14.51 12.4901C14.26 12.3701 13.04 11.7701 12.82 11.6801C12.59 11.6001 12.43 11.5601 12.26 11.8001C12.09 12.0501 11.62 12.6101 11.48 12.7701C11.34 12.9401 11.19 12.9601 10.94 12.8301C10.69 12.7101 9.89 12.4401 8.95 11.6001C8.21 10.9401 7.72 10.1301 7.57 9.88006C7.43 9.63006 7.55 9.50006 7.68 9.37006C7.79 9.26006 7.93 9.08006 8.05 8.94006C8.17 8.80006 8.22 8.69006 8.3 8.53006C8.38 8.36006 8.34 8.22006 8.28 8.10006C8.22 7.98006 7.72 6.76006 7.52 6.26006C7.32 5.78006 7.11 5.84006 6.96 5.83006H6.48C6.31 5.83006 6.05 5.89006 5.82 6.14006C5.6 6.39006 4.96 6.99006 4.96 8.21006C4.96 9.43006 5.85 10.6101 5.97 10.7701C6.09 10.9401 7.72 13.4401 10.2 14.5101C10.79 14.7701 11.25 14.9201 11.61 15.0301C12.2 15.2201 12.74 15.1901 13.17 15.1301C13.65 15.0601 14.64 14.5301 14.84 13.9501C15.05 13.3701 15.05 12.8801 14.98 12.7701C14.91 12.6601 14.76 12.6101 14.51 12.4901Z" fill="#F1F1F1" fill-opacity="0.71"/>
</svg>
