<svg width="30" height="31" viewBox="0 0 30 31" fill="none" xmlns="http://www.w3.org/2000/svg">
<path d="M15 0.478516C11.0218 0.478516 7.20644 2.05887 4.3934 4.87191C1.58035 7.68496 0 11.5003 0 15.4785C0 19.4568 1.58035 23.2721 4.3934 26.0851C7.20644 28.8982 11.0218 30.4785 15 30.4785C18.9782 30.4785 22.7936 28.8982 25.6066 26.0851C28.4196 23.2721 30 19.4568 30 15.4785C30 11.5003 28.4196 7.68496 25.6066 4.87191C22.7936 2.05887 18.9782 0.478516 15 0.478516ZM18.9538 27.7073H18.8375C18.7502 27.7122 18.6628 27.6992 18.5807 27.6691C18.4985 27.639 18.4235 27.5925 18.36 27.5323C18.3014 27.4703 18.2557 27.3972 18.2256 27.3174C18.1956 27.2376 18.1818 27.1525 18.185 27.0673V25.3098C18.1925 24.726 18.1975 24.1348 18.1975 23.5398C18.1955 23.1047 18.1319 22.6721 18.0087 22.2548C17.8921 21.8329 17.657 21.4534 17.3312 21.161C18.2025 21.0769 19.059 20.879 19.8787 20.5723C20.5703 20.3093 21.1958 19.898 21.7113 19.3673C22.22 18.8335 22.5987 18.1885 22.8175 17.4848C23.0836 16.6229 23.2102 15.7241 23.1925 14.8223C23.1974 14.1926 23.0872 13.5674 22.8675 12.9773C22.6442 12.3825 22.3066 11.8373 21.8738 11.3723C21.9672 11.1377 22.0351 10.8938 22.0762 10.6448C22.1175 10.3948 22.1388 10.1423 22.1388 9.88977C22.1388 9.56477 22.1013 9.23977 22.0263 8.92352C21.9581 8.59915 21.8658 8.28034 21.75 7.96977C21.7058 7.95253 21.6587 7.94403 21.6112 7.94477H21.4738C21.1863 7.94727 20.9037 7.99477 20.6312 8.08352C20.3311 8.17113 20.0374 8.27973 19.7525 8.40852C19.4691 8.53553 19.1933 8.67868 18.9263 8.83727C18.6575 8.99602 18.42 9.14852 18.21 9.28977C16.1072 8.70368 13.8841 8.70368 11.7812 9.28977C11.5467 9.13298 11.3083 8.9821 11.0662 8.83727C10.7955 8.67736 10.5149 8.53458 10.2262 8.40977C9.94208 8.27671 9.64731 8.16758 9.345 8.08352C9.07787 7.99527 8.7988 7.94847 8.5175 7.94477H8.38C8.33298 7.9441 8.28628 7.95259 8.2425 7.96977C8.12508 8.28077 8.02902 8.59943 7.955 8.92352C7.8875 9.24102 7.855 9.56477 7.85375 9.88977C7.85375 10.1423 7.875 10.3948 7.9175 10.6448C7.95875 10.8935 8.025 11.1373 8.1175 11.3723C7.68574 11.8379 7.3494 12.3836 7.1275 12.9785C6.9066 13.5684 6.79519 14.1936 6.79875 14.8235C6.78127 15.7205 6.90443 16.6147 7.16375 17.4735C7.39 18.1773 7.7675 18.8235 8.26875 19.3685C8.7875 19.896 9.4125 20.306 10.1013 20.5735C10.9175 20.886 11.7725 21.086 12.6425 21.1685C12.3996 21.3887 12.2069 21.6585 12.0775 21.9598C11.9544 22.2577 11.8704 22.5703 11.8275 22.8898C11.3689 23.1094 10.8673 23.2246 10.3587 23.2273C9.88651 23.2462 9.42044 23.1149 9.0275 22.8523C8.65055 22.5729 8.33132 22.2231 8.0875 21.8223C7.97838 21.6539 7.85635 21.4942 7.7225 21.3448C7.5813 21.1876 7.42561 21.044 7.2575 20.916C7.0918 20.7922 6.91016 20.6913 6.7175 20.616C6.52794 20.5329 6.32323 20.4899 6.11625 20.4898C6.06625 20.491 6.01625 20.496 5.96625 20.5023C5.89797 20.502 5.82993 20.5104 5.76375 20.5273C5.70559 20.5425 5.65057 20.5679 5.60125 20.6023C5.57883 20.6146 5.56007 20.6327 5.5469 20.6547C5.53373 20.6766 5.5266 20.7017 5.52625 20.7273C5.5315 20.7874 5.54989 20.8457 5.58013 20.898C5.61037 20.9502 5.65172 20.9952 5.70125 21.0298C5.8175 21.1223 5.91375 21.1935 5.99125 21.2435L6.02875 21.2698C6.195 21.3985 6.355 21.5373 6.50625 21.686C6.64625 21.8085 6.7725 21.9473 6.88125 22.0985C6.99375 22.2473 7.09125 22.406 7.17 22.5748C7.26125 22.7423 7.3575 22.9348 7.45875 23.1535C7.69375 23.746 8.11125 24.2473 8.65125 24.5848C9.2175 24.8885 9.8525 25.0398 10.4963 25.0235C10.7138 25.0235 10.9325 25.011 11.1487 24.986C11.3637 24.951 11.5775 24.9148 11.7925 24.8723V27.051C11.7964 27.1389 11.7817 27.2265 11.7494 27.3083C11.7171 27.3901 11.6679 27.4641 11.605 27.5256C11.5421 27.5871 11.467 27.6346 11.3845 27.665C11.302 27.6955 11.214 27.7082 11.1263 27.7023H11.0487C8.1338 26.7606 5.65083 24.8091 4.04696 22.1993C2.44309 19.5894 1.82371 16.4927 2.30035 13.4667C2.777 10.4408 4.31834 7.68439 6.64684 5.69397C8.97533 3.70354 11.938 2.60985 15.0013 2.60985C18.0645 2.60985 21.0272 3.70354 23.3557 5.69397C25.6842 7.68439 27.2255 10.4408 27.7021 13.4667C28.1788 16.4927 27.5594 19.5894 25.9555 22.1993C24.3517 24.8091 21.8687 26.7606 18.9538 27.7023V27.7085V27.7073Z" fill="white"/>
</svg>
