<svg width="30" height="31" viewBox="0 0 30 31" fill="none" xmlns="http://www.w3.org/2000/svg">
<path d="M8.7 0.478516H21.3C26.1 0.478516 30 4.37852 30 9.17852V21.7785C30 24.0859 29.0834 26.2988 27.4518 27.9303C25.8203 29.5619 23.6074 30.4785 21.3 30.4785H8.7C3.9 30.4785 0 26.5785 0 21.7785V9.17852C0 6.87113 0.916605 4.65825 2.54817 3.02669C4.17974 1.39512 6.39262 0.478516 8.7 0.478516ZM8.4 3.47852C6.96783 3.47852 5.59432 4.04744 4.58162 5.06014C3.56893 6.07284 3 7.44635 3 8.87852V22.0785C3 25.0635 5.415 27.4785 8.4 27.4785H21.6C23.0322 27.4785 24.4057 26.9096 25.4184 25.8969C26.4311 24.8842 27 23.5107 27 22.0785V8.87852C27 5.89352 24.585 3.47852 21.6 3.47852H8.4ZM22.875 5.72852C23.3723 5.72852 23.8492 5.92606 24.2008 6.27769C24.5525 6.62932 24.75 7.10623 24.75 7.60352C24.75 8.1008 24.5525 8.57771 24.2008 8.92934C23.8492 9.28097 23.3723 9.47852 22.875 9.47852C22.3777 9.47852 21.9008 9.28097 21.5492 8.92934C21.1975 8.57771 21 8.1008 21 7.60352C21 7.10623 21.1975 6.62932 21.5492 6.27769C21.9008 5.92606 22.3777 5.72852 22.875 5.72852ZM15 7.97852C16.9891 7.97852 18.8968 8.76869 20.3033 10.1752C21.7098 11.5817 22.5 13.4894 22.5 15.4785C22.5 17.4676 21.7098 19.3753 20.3033 20.7818C18.8968 22.1883 16.9891 22.9785 15 22.9785C13.0109 22.9785 11.1032 22.1883 9.6967 20.7818C8.29018 19.3753 7.5 17.4676 7.5 15.4785C7.5 13.4894 8.29018 11.5817 9.6967 10.1752C11.1032 8.76869 13.0109 7.97852 15 7.97852ZM15 10.9785C13.8065 10.9785 12.6619 11.4526 11.818 12.2965C10.9741 13.1404 10.5 14.285 10.5 15.4785C10.5 16.672 10.9741 17.8166 11.818 18.6605C12.6619 19.5044 13.8065 19.9785 15 19.9785C16.1935 19.9785 17.3381 19.5044 18.182 18.6605C19.0259 17.8166 19.5 16.672 19.5 15.4785C19.5 14.285 19.0259 13.1404 18.182 12.2965C17.3381 11.4526 16.1935 10.9785 15 10.9785Z" fill="#F8F8F8"/>
</svg>
