<svg width="30" height="31" viewBox="0 0 30 31" fill="none" xmlns="http://www.w3.org/2000/svg">
<path d="M22.5 17.1735V22.719H19.2855V17.544C19.2855 16.245 18.8205 15.3585 17.6565 15.3585C16.7685 15.3585 16.239 15.9555 16.0065 16.5345C15.9225 16.7415 15.9 17.0295 15.9 17.3175V22.719H12.684C12.684 22.719 12.7275 13.956 12.684 13.0485H15.9V14.418L15.879 14.4495H15.9V14.4195C16.3275 13.7595 17.0895 12.8205 18.798 12.8205C20.913 12.8205 22.5 14.2035 22.5 17.1735ZM9.3195 8.38501C8.22 8.38501 7.5 9.10801 7.5 10.056C7.5 10.986 8.199 11.7285 9.2775 11.7285H9.2985C10.4205 11.7285 11.118 10.9845 11.118 10.056C11.097 9.10801 10.4205 8.38501 9.3195 8.38501ZM7.6905 22.719H10.9065V13.0485H7.6905V22.719Z" fill="#F8F8F8"/>
<path d="M15 27.4785C18.1826 27.4785 21.2348 26.2142 23.4853 23.9638C25.7357 21.7134 27 18.6611 27 15.4785C27 12.2959 25.7357 9.24367 23.4853 6.99323C21.2348 4.7428 18.1826 3.47852 15 3.47852C11.8174 3.47852 8.76515 4.7428 6.51472 6.99323C4.26428 9.24367 3 12.2959 3 15.4785C3 18.6611 4.26428 21.7134 6.51472 23.9638C8.76515 26.2142 11.8174 27.4785 15 27.4785ZM15 30.4785C6.7155 30.4785 0 23.763 0 15.4785C0 7.19402 6.7155 0.478516 15 0.478516C23.2845 0.478516 30 7.19402 30 15.4785C30 23.763 23.2845 30.4785 15 30.4785Z" fill="#F8F8F8"/>
</svg>
