<svg width="120" height="31" viewBox="0 0 120 31" fill="none" xmlns="http://www.w3.org/2000/svg">
<path d="M8.7 0.478516H21.3C26.1 0.478516 30 4.37852 30 9.17852V21.7785C30 24.0859 29.0834 26.2988 27.4518 27.9303C25.8203 29.5619 23.6074 30.4785 21.3 30.4785H8.7C3.9 30.4785 0 26.5785 0 21.7785V9.17852C0 6.87113 0.916605 4.65825 2.54817 3.02669C4.17974 1.39512 6.39262 0.478516 8.7 0.478516ZM8.4 3.47852C6.96783 3.47852 5.59432 4.04744 4.58162 5.06014C3.56893 6.07284 3 7.44635 3 8.87852V22.0785C3 25.0635 5.415 27.4785 8.4 27.4785H21.6C23.0322 27.4785 24.4057 26.9096 25.4184 25.8969C26.4311 24.8842 27 23.5107 27 22.0785V8.87852C27 5.89352 24.585 3.47852 21.6 3.47852H8.4ZM22.875 5.72852C23.3723 5.72852 23.8492 5.92606 24.2008 6.27769C24.5525 6.62932 24.75 7.10623 24.75 7.60352C24.75 8.1008 24.5525 8.57771 24.2008 8.92934C23.8492 9.28097 23.3723 9.47852 22.875 9.47852C22.3777 9.47852 21.9008 9.28097 21.5492 8.92934C21.1975 8.57771 21 8.1008 21 7.60352C21 7.10623 21.1975 6.62932 21.5492 6.27769C21.9008 5.92606 22.3777 5.72852 22.875 5.72852ZM15 7.97852C16.9891 7.97852 18.8968 8.76869 20.3033 10.1752C21.7098 11.5817 22.5 13.4894 22.5 15.4785C22.5 17.4676 21.7098 19.3753 20.3033 20.7818C18.8968 22.1883 16.9891 22.9785 15 22.9785C13.0109 22.9785 11.1032 22.1883 9.6967 20.7818C8.29018 19.3753 7.5 17.4676 7.5 15.4785C7.5 13.4894 8.29018 11.5817 9.6967 10.1752C11.1032 8.76869 13.0109 7.97852 15 7.97852ZM15 10.9785C13.8065 10.9785 12.6619 11.4526 11.818 12.2965C10.9741 13.1404 10.5 14.285 10.5 15.4785C10.5 16.672 10.9741 17.8166 11.818 18.6605C12.6619 19.5044 13.8065 19.9785 15 19.9785C16.1935 19.9785 17.3381 19.5044 18.182 18.6605C19.0259 17.8166 19.5 16.672 19.5 15.4785C19.5 14.285 19.0259 13.1404 18.182 12.2965C17.3381 11.4526 16.1935 10.9785 15 10.9785Z" fill="#F8F8F8"/>
<path d="M67.5 17.1735V22.719H64.2855V17.544C64.2855 16.245 63.8205 15.3585 62.6565 15.3585C61.7685 15.3585 61.239 15.9555 61.0065 16.5345C60.9225 16.7415 60.9 17.0295 60.9 17.3175V22.719H57.684C57.684 22.719 57.7275 13.956 57.684 13.0485H60.9V14.418L60.879 14.4495H60.9V14.4195C61.3275 13.7595 62.0895 12.8205 63.798 12.8205C65.913 12.8205 67.5 14.2035 67.5 17.1735ZM54.3195 8.38501C53.22 8.38501 52.5 9.10801 52.5 10.056C52.5 10.986 53.199 11.7285 54.2775 11.7285H54.2985C55.4205 11.7285 56.118 10.9845 56.118 10.056C56.097 9.10801 55.4205 8.38501 54.3195 8.38501ZM52.6905 22.719H55.9065V13.0485H52.6905V22.719Z" fill="#F8F8F8"/>
<path d="M60 27.4785C63.1826 27.4785 66.2348 26.2142 68.4853 23.9638C70.7357 21.7134 72 18.6611 72 15.4785C72 12.2959 70.7357 9.24367 68.4853 6.99323C66.2348 4.7428 63.1826 3.47852 60 3.47852C56.8174 3.47852 53.7652 4.7428 51.5147 6.99323C49.2643 9.24367 48 12.2959 48 15.4785C48 18.6611 49.2643 21.7134 51.5147 23.9638C53.7652 26.2142 56.8174 27.4785 60 27.4785ZM60 30.4785C51.7155 30.4785 45 23.763 45 15.4785C45 7.19402 51.7155 0.478516 60 0.478516C68.2845 0.478516 75 7.19402 75 15.4785C75 23.763 68.2845 30.4785 60 30.4785Z" fill="#F8F8F8"/>
<path d="M105 0.478516C101.022 0.478516 97.2064 2.05887 94.3934 4.87191C91.5804 7.68496 90 11.5003 90 15.4785C90 19.4568 91.5804 23.2721 94.3934 26.0851C97.2064 28.8982 101.022 30.4785 105 30.4785C108.978 30.4785 112.794 28.8982 115.607 26.0851C118.42 23.2721 120 19.4568 120 15.4785C120 11.5003 118.42 7.68496 115.607 4.87191C112.794 2.05887 108.978 0.478516 105 0.478516V0.478516ZM108.954 27.7073H108.837C108.75 27.7122 108.663 27.6992 108.581 27.6691C108.499 27.639 108.423 27.5925 108.36 27.5323C108.301 27.4703 108.256 27.3972 108.226 27.3174C108.196 27.2376 108.182 27.1525 108.185 27.0673V25.3098C108.193 24.726 108.198 24.1348 108.198 23.5398C108.195 23.1047 108.132 22.6721 108.009 22.2548C107.892 21.8329 107.657 21.4534 107.331 21.161C108.202 21.0769 109.059 20.879 109.879 20.5723C110.57 20.3093 111.196 19.898 111.711 19.3673C112.22 18.8335 112.599 18.1885 112.817 17.4848C113.084 16.6229 113.21 15.7241 113.193 14.8223C113.197 14.1926 113.087 13.5674 112.868 12.9773C112.644 12.3825 112.307 11.8373 111.874 11.3723C111.967 11.1377 112.035 10.8938 112.076 10.6448C112.117 10.3948 112.139 10.1423 112.139 9.88977C112.139 9.56476 112.101 9.23977 112.026 8.92352C111.958 8.59915 111.866 8.28034 111.75 7.96977C111.706 7.95253 111.659 7.94403 111.611 7.94477H111.474C111.186 7.94727 110.904 7.99477 110.631 8.08352C110.331 8.17113 110.037 8.27973 109.753 8.40852C109.469 8.53553 109.193 8.67868 108.926 8.83727C108.657 8.99602 108.42 9.14852 108.21 9.28977C106.107 8.70368 103.884 8.70368 101.781 9.28977C101.547 9.13298 101.308 8.9821 101.066 8.83727C100.795 8.67736 100.515 8.53458 100.226 8.40977C99.9421 8.27671 99.6473 8.16758 99.345 8.08352C99.0779 7.99527 98.7988 7.94847 98.5175 7.94477H98.38C98.333 7.9441 98.2863 7.95259 98.2425 7.96977C98.1251 8.28077 98.029 8.59943 97.955 8.92352C97.8875 9.24102 97.855 9.56476 97.8538 9.88977C97.8538 10.1423 97.875 10.3948 97.9175 10.6448C97.9588 10.8935 98.025 11.1373 98.1175 11.3723C97.6857 11.8379 97.3494 12.3836 97.1275 12.9785C96.9066 13.5684 96.7952 14.1936 96.7987 14.8235C96.7813 15.7205 96.9044 16.6147 97.1637 17.4735C97.39 18.1773 97.7675 18.8235 98.2687 19.3685C98.7875 19.896 99.4125 20.306 100.101 20.5735C100.918 20.886 101.773 21.086 102.642 21.1685C102.4 21.3887 102.207 21.6585 102.077 21.9598C101.954 22.2577 101.87 22.5703 101.827 22.8898C101.369 23.1094 100.867 23.2246 100.359 23.2273C99.8865 23.2462 99.4204 23.1149 99.0275 22.8523C98.6505 22.5729 98.3313 22.2231 98.0875 21.8223C97.9784 21.6539 97.8563 21.4942 97.7225 21.3448C97.5813 21.1876 97.4256 21.044 97.2575 20.916C97.0918 20.7922 96.9102 20.6913 96.7175 20.616C96.5279 20.5329 96.3232 20.4899 96.1163 20.4898C96.0663 20.491 96.0162 20.496 95.9662 20.5023C95.898 20.502 95.8299 20.5104 95.7638 20.5273C95.7056 20.5425 95.6506 20.5679 95.6012 20.6023C95.5788 20.6146 95.5601 20.6327 95.5469 20.6547C95.5337 20.6766 95.5266 20.7017 95.5262 20.7273C95.5315 20.7874 95.5499 20.8457 95.5801 20.898C95.6104 20.9502 95.6517 20.9952 95.7013 21.0298C95.8175 21.1223 95.9138 21.1935 95.9913 21.2435L96.0287 21.2698C96.195 21.3985 96.355 21.5373 96.5062 21.686C96.6462 21.8085 96.7725 21.9473 96.8813 22.0985C96.9938 22.2473 97.0912 22.406 97.17 22.5748C97.2613 22.7423 97.3575 22.9348 97.4587 23.1535C97.6937 23.746 98.1112 24.2473 98.6512 24.5848C99.2175 24.8885 99.8525 25.0398 100.496 25.0235C100.714 25.0235 100.932 25.011 101.149 24.986C101.364 24.951 101.578 24.9148 101.792 24.8723V27.051C101.796 27.1389 101.782 27.2265 101.749 27.3083C101.717 27.3901 101.668 27.4641 101.605 27.5256C101.542 27.5871 101.467 27.6346 101.384 27.665C101.302 27.6955 101.214 27.7082 101.126 27.7023H101.049C98.1338 26.7606 95.6508 24.8091 94.047 22.1993C92.4431 19.5894 91.8237 16.4927 92.3004 13.4667C92.777 10.4408 94.3183 7.68439 96.6468 5.69397C98.9753 3.70354 101.938 2.60985 105.001 2.60985C108.065 2.60985 111.027 3.70354 113.356 5.69397C115.684 7.68439 117.226 10.4408 117.702 13.4667C118.179 16.4927 117.559 19.5894 115.956 22.1993C114.352 24.8091 111.869 26.7606 108.954 27.7023V27.7085V27.7073Z" fill="white"/>
</svg>
