<svg width="20" height="21" viewBox="0 0 20 21" fill="none" xmlns="http://www.w3.org/2000/svg">
<path d="M8.33317 18.2278C8.33315 18.0945 8.30159 17.9629 8.24072 17.8422C8.17985 17.7215 8.09116 17.6147 7.98095 17.5295C7.87073 17.4442 7.74168 17.3825 7.60294 17.3487C7.4642 17.3149 7.31917 17.3099 7.17813 17.3341C5.89798 17.5524 4.28167 17.5852 3.85193 16.4634C3.4772 15.5945 2.85649 14.8361 2.05561 14.2685C1.99847 14.2396 1.94401 14.2064 1.89279 14.1691C1.8227 13.9973 1.6982 13.8492 1.53572 13.7445C1.37324 13.6398 1.18042 13.5833 0.982686 13.5825H0.977914C0.719356 13.5824 0.471291 13.6775 0.288017 13.847C0.104742 14.0165 0.00118537 14.2466 1.37111e-05 14.4869C-0.00380988 15.228 0.793091 15.7028 1.11638 15.8635C1.49761 16.2194 1.804 16.6384 2.0198 17.0989C2.37601 18.0291 3.4112 19.4403 6.38693 19.2583C6.3879 19.2903 6.38883 19.3205 6.38931 19.348L6.39361 19.5912C6.39361 19.8322 6.49663 20.0634 6.68003 20.2338C6.86342 20.4042 7.11215 20.5 7.37151 20.5C7.63086 20.5 7.87959 20.4042 8.06299 20.2338C8.24638 20.0634 8.34941 19.8322 8.34941 19.5912L8.34464 19.3018C8.33986 19.1296 8.33317 18.8802 8.33317 18.2278ZM18.7644 4.48063C18.7955 4.36702 18.826 4.24099 18.8528 4.09898C19.0109 3.08615 18.8731 2.05243 18.4536 1.10615C18.4007 0.982789 18.3193 0.871677 18.2153 0.780607C18.1113 0.689537 17.9871 0.620712 17.8515 0.578959C17.5033 0.469788 16.218 0.255001 13.7599 1.71502C11.7166 1.26813 9.58957 1.26813 7.54629 1.71502C5.09818 0.276386 3.81946 0.471606 3.47471 0.57456C3.33571 0.614622 3.20813 0.683082 3.1013 0.774922C2.99447 0.866762 2.9111 0.979655 2.85731 1.10533C2.42929 2.06977 2.29291 3.12458 2.46291 4.15581C2.48679 4.27208 2.51256 4.37948 2.53931 4.47799C1.72919 5.48085 1.29768 6.70408 1.31168 7.95805C1.30904 8.23783 1.32291 8.51753 1.35322 8.79589C1.67984 12.9789 4.61354 14.2348 6.65766 14.6661C6.61517 14.7797 6.57649 14.9013 6.54211 15.03C6.48083 15.2639 6.52184 15.5107 6.65613 15.7165C6.79042 15.9223 7.00704 16.0702 7.25849 16.1278C7.50994 16.1854 7.77569 16.1479 7.99747 16.0236C8.21924 15.8994 8.37895 15.6984 8.44156 15.4649C8.50379 15.1621 8.66327 14.8839 8.89901 14.667C9.04154 14.551 9.14474 14.3991 9.19605 14.2296C9.24735 14.0601 9.24456 13.8804 9.188 13.7124C9.13144 13.5443 9.02356 13.3952 8.87748 13.2831C8.7314 13.171 8.55341 13.1008 8.36517 13.081C4.9874 12.7224 3.52102 11.4434 3.30043 8.62904C3.27599 8.40613 3.26499 8.18212 3.26748 7.95806C3.25179 7.06435 3.56949 6.19315 4.16659 5.49246C4.22659 5.41941 4.2905 5.34921 4.35807 5.28211C4.47779 5.1576 4.55829 5.00484 4.59072 4.8406C4.62315 4.67636 4.60627 4.50698 4.54191 4.35108C4.47594 4.18706 4.42514 4.01811 4.39007 3.84606C4.31041 3.35684 4.33654 2.85777 4.46694 2.37806C5.31686 2.60115 6.11677 2.9643 6.82857 3.4502C6.94628 3.52307 7.07947 3.57156 7.21911 3.59239C7.35875 3.61321 7.50158 3.60589 7.63792 3.57092C9.61436 3.07241 11.6981 3.07273 13.6743 3.57182C13.8114 3.60676 13.955 3.61367 14.0952 3.59206C14.2354 3.57046 14.3689 3.52086 14.4866 3.44669C15.195 2.95876 15.9916 2.59237 16.8387 2.36477C16.9685 2.83296 16.9975 3.32038 16.9241 3.79904C16.8887 3.98766 16.8334 4.17257 16.7589 4.3511C16.6946 4.507 16.6777 4.67637 16.7101 4.84062C16.7426 5.00486 16.8231 5.15762 16.9428 5.28213C17.0182 5.36112 17.0937 5.44632 17.1615 5.5262C17.7544 6.21503 18.0667 7.07621 18.0434 7.95805C18.0452 8.194 18.0329 8.42985 18.0067 8.66453C17.7913 11.4417 16.3192 12.7215 12.9257 13.081C12.7374 13.1009 12.5594 13.1712 12.4133 13.2834C12.2673 13.3956 12.1594 13.5449 12.1029 13.713C12.0464 13.8811 12.0437 14.0608 12.0951 14.2304C12.1464 14.3999 12.2497 14.5519 12.3923 14.6679C12.6355 14.8906 12.7953 15.1799 12.8483 15.4933C12.9144 15.7366 12.9448 15.9871 12.9386 16.238V18.3592C12.929 18.9476 12.929 19.3887 12.929 19.5911C12.929 19.8321 13.032 20.0633 13.2154 20.2338C13.3988 20.4042 13.6475 20.4999 13.9069 20.4999C14.1663 20.4999 14.415 20.4042 14.5984 20.2338C14.7818 20.0633 14.8848 19.8321 14.8848 19.5911C14.8848 19.3941 14.8848 18.9618 14.8944 18.3734V16.238C14.9022 15.8361 14.8513 15.4351 14.743 15.046C14.712 14.9182 14.6741 14.7921 14.6293 14.6679C16.117 14.4382 17.4687 13.7254 18.4438 12.6563C19.4189 11.5872 19.9542 10.2312 19.9543 8.82963C19.9865 8.54009 20.0015 8.24912 19.9992 7.95805C20.0209 6.70273 19.5858 5.47738 18.7644 4.48064L18.7644 4.48063Z" fill="#F1F1F1" fill-opacity="0.7"/>
</svg>
