<svg width="20" height="21" viewBox="0 0 20 21" fill="none" xmlns="http://www.w3.org/2000/svg">
<path d="M10 5.5C9.01109 5.5 8.04439 5.79324 7.22215 6.34265C6.3999 6.89206 5.75904 7.67295 5.3806 8.58658C5.00216 9.50021 4.90315 10.5055 5.09607 11.4755C5.289 12.4454 5.7652 13.3363 6.46447 14.0355C7.16373 14.7348 8.05464 15.211 9.02455 15.4039C9.99445 15.5969 10.9998 15.4978 11.9134 15.1194C12.827 14.741 13.6079 14.1001 14.1573 13.2779C14.7068 12.4556 15 11.4889 15 10.5C15 9.17392 14.4732 7.90215 13.5355 6.96447C12.5979 6.02678 11.3261 5.5 10 5.5ZM10 13.5C9.40666 13.5 8.82664 13.3241 8.33329 12.9944C7.83994 12.6648 7.45542 12.1962 7.22836 11.6481C7.0013 11.0999 6.94189 10.4967 7.05764 9.91473C7.1734 9.33279 7.45912 8.79824 7.87868 8.37868C8.29824 7.95912 8.83279 7.6734 9.41473 7.55764C9.99667 7.44189 10.5999 7.5013 11.1481 7.72836C11.6962 7.95542 12.1648 8.33994 12.4944 8.83329C12.8241 9.32664 13 9.90666 13 10.5C13 11.2956 12.6839 12.0587 12.1213 12.6213C11.5587 13.1839 10.7956 13.5 10 13.5ZM15 4.5C14.8022 4.5 14.6089 4.55865 14.4444 4.66853C14.28 4.77841 14.1518 4.93459 14.0761 5.11732C14.0004 5.30004 13.9806 5.50111 14.0192 5.69509C14.0578 5.88907 14.153 6.06725 14.2929 6.20711C14.4327 6.34696 14.6109 6.4422 14.8049 6.48079C14.9989 6.51937 15.2 6.49957 15.3827 6.42388C15.5654 6.34819 15.7216 6.22002 15.8315 6.05557C15.9414 5.89112 16 5.69778 16 5.5C16 5.23478 15.8946 4.98043 15.7071 4.79289C15.5196 4.60536 15.2652 4.5 15 4.5ZM19.94 6.74C19.9234 5.88542 19.7611 5.03995 19.46 4.24C19.1808 3.51207 18.7516 2.85099 18.2003 2.2997C17.649 1.7484 16.9879 1.31922 16.26 1.04C15.4601 0.738899 14.6146 0.576568 13.76 0.56C12.79 0.5 12.47 0.5 10 0.5C7.53 0.5 7.21 0.5 6.24 0.56C5.38542 0.576568 4.53995 0.738899 3.74 1.04C3.01207 1.31922 2.35099 1.7484 1.7997 2.2997C1.2484 2.85099 0.819216 3.51207 0.54 4.24C0.238899 5.03995 0.0765676 5.88542 0.0599999 6.74C-5.58794e-08 7.72 0 8.04 0 10.5C0 12.96 -5.58794e-08 13.28 0.0599999 14.26C0.0765676 15.1146 0.238899 15.9601 0.54 16.76C0.819216 17.4879 1.2484 18.149 1.7997 18.7003C2.35099 19.2516 3.01207 19.6808 3.74 19.96C4.53995 20.2611 5.38542 20.4234 6.24 20.44C7.24 20.44 7.53 20.5 10 20.5C12.47 20.5 12.79 20.5 13.76 20.44C14.6146 20.4234 15.4601 20.2611 16.26 19.96C16.9879 19.6808 17.649 19.2516 18.2003 18.7003C18.7516 18.149 19.1808 17.4879 19.46 16.76C19.7611 15.9601 19.9234 15.1146 19.94 14.26C19.94 13.26 20 12.96 20 10.5C20 8.04 20 7.72 19.94 6.74ZM17.94 14.17C17.9225 14.8046 17.8043 15.4324 17.59 16.03C17.4128 16.5023 17.1327 16.9293 16.77 17.28C16.4214 17.6428 15.9936 17.9201 15.52 18.09C14.921 18.3131 14.289 18.4348 13.65 18.45C12.71 18.45 12.42 18.5 9.99 18.5C7.56 18.5 7.28 18.5 6.34 18.5C5.70202 18.4835 5.07075 18.3654 4.47 18.15C3.99766 17.9728 3.57067 17.6927 3.22 17.33C2.85715 16.9814 2.57992 16.5536 2.41 16.08C2.1878 15.4842 2.06615 14.8557 2.05 14.22C2.05 13.22 2.05 12.97 2.05 10.55C2.05 8.13 2.05 7.84 2.05 6.88C2.06724 6.24121 2.18884 5.60954 2.41 5.01C2.58256 4.54063 2.85953 4.11662 3.22 3.77C3.56858 3.40715 3.99641 3.12992 4.47 2.96C5.06899 2.7369 5.70099 2.61523 6.34 2.6C7.28 2.5 7.57 2.5 10 2.5C12.43 2.5 12.72 2.5 13.66 2.5C14.3021 2.51633 14.9373 2.63794 15.54 2.86C16.0094 3.03256 16.4334 3.30953 16.78 3.67C17.1428 4.01858 17.4201 4.44641 17.59 4.92C17.8348 5.52856 17.9735 6.17458 18 6.83C18 7.83 18.05 8.08 18.05 10.5C18.05 12.92 18 13.21 18 14.17H17.94Z" fill="#F1F1F1" fill-opacity="0.7"/>
</svg>
