<svg width="20" height="21" viewBox="0 0 20 21" fill="none" xmlns="http://www.w3.org/2000/svg">
<path d="M14.8625 7.45416C14.0263 7.4538 13.203 7.66015 12.4662 8.05476C12.399 7.87811 12.2795 7.72604 12.1235 7.61876C11.9676 7.51148 11.7827 7.45407 11.5932 7.45416H7.85691C7.73422 7.45409 7.61272 7.47814 7.49936 7.52495C7.386 7.57175 7.28301 7.64039 7.19625 7.72693C7.1095 7.81348 7.0407 7.91623 6.99378 8.02932C6.94686 8.14241 6.92275 8.26361 6.92282 8.386V19.5682C6.92275 19.6905 6.94686 19.8118 6.99378 19.9248C7.0407 20.0379 7.1095 20.1407 7.19625 20.2272C7.283 20.3138 7.386 20.3824 7.49936 20.4292C7.61272 20.476 7.73422 20.5001 7.85691 20.5H11.5932C11.7159 20.5001 11.8374 20.476 11.9508 20.4292C12.0641 20.3824 12.1671 20.3138 12.2539 20.2272C12.3407 20.1407 12.4095 20.0379 12.4564 19.9248C12.5033 19.8118 12.5274 19.6905 12.5273 19.5682V14.443C12.5273 14.1959 12.6257 13.9588 12.8009 13.7841C12.9761 13.6093 13.2137 13.5112 13.4614 13.5112C13.7091 13.5112 13.9467 13.6093 14.1219 13.7841C14.2971 13.9588 14.3955 14.1959 14.3955 14.443V19.5682C14.3954 19.6905 14.4195 19.8118 14.4665 19.9248C14.5134 20.0379 14.5822 20.1407 14.6689 20.2272C14.7557 20.3138 14.8587 20.3824 14.972 20.4292C15.0854 20.476 15.2069 20.5001 15.3296 20.5H19.0659C19.1886 20.5001 19.3101 20.476 19.4235 20.4292C19.5368 20.3824 19.6398 20.3138 19.7266 20.2272C19.8133 20.1407 19.8821 20.0379 19.929 19.9248C19.976 19.8118 20.0001 19.6905 20 19.5682V12.5793C19.9983 11.2206 19.4565 9.91793 18.4934 8.95715C17.5303 7.99636 16.2246 7.45585 14.8625 7.45416ZM18.1318 18.6363H16.2637V14.443C16.2637 13.7016 15.9684 12.9905 15.4429 12.4663C14.9174 11.942 14.2046 11.6475 13.4614 11.6475C12.7182 11.6475 12.0054 11.942 11.4799 12.4663C10.9544 12.9905 10.6592 13.7016 10.6592 14.443V18.6363H8.79099V9.31785H10.6592V9.97306C10.6593 10.1661 10.7195 10.3544 10.8314 10.5119C10.9434 10.6694 11.1017 10.7883 11.2843 10.8522C11.4669 10.9161 11.6649 10.9219 11.851 10.8688C12.037 10.8156 12.202 10.7061 12.323 10.5555C12.7422 10.0243 13.3172 9.63707 13.9677 9.44772C14.6182 9.25837 15.3117 9.2764 15.9514 9.49929C16.5912 9.72217 17.1451 10.1388 17.536 10.691C17.9269 11.2431 18.1352 11.9033 18.1318 12.5793V18.6363ZM5.05465 7.45416H1.31832C1.19563 7.45409 1.07414 7.47814 0.960776 7.52495C0.847416 7.57175 0.744416 7.64039 0.657664 7.72693C0.570912 7.81348 0.502111 7.91623 0.455194 8.02932C0.408276 8.14241 0.384163 8.26361 0.384233 8.386V19.5682C0.384162 19.6905 0.408274 19.8118 0.455191 19.9248C0.502108 20.0379 0.57091 20.1407 0.657661 20.2272C0.744413 20.3138 0.847414 20.3824 0.960775 20.4292C1.07414 20.476 1.19563 20.5001 1.31832 20.5H5.05465C5.17734 20.5001 5.29884 20.476 5.4122 20.4292C5.52556 20.3824 5.62856 20.3138 5.71531 20.2272C5.80206 20.1407 5.87086 20.0379 5.91778 19.9248C5.9647 19.8118 5.98881 19.6905 5.98874 19.5682V8.386C5.98881 8.26361 5.96469 8.14241 5.91778 8.02932C5.87086 7.91623 5.80206 7.81348 5.71531 7.72693C5.62856 7.64039 5.52556 7.57175 5.4122 7.52495C5.29884 7.47814 5.17734 7.45409 5.05465 7.45416ZM4.12057 18.6363H2.2524V9.31785H4.12057V18.6363ZM3.20017 0.505383C2.79138 0.480972 2.38188 0.539765 1.99658 0.678189C1.61128 0.816612 1.25823 1.03177 0.958898 1.31058C0.659567 1.5894 0.42021 1.92603 0.255385 2.30002C0.090559 2.67402 0.00370901 3.07754 0.000116223 3.48607C-0.00347656 3.8946 0.076263 4.29958 0.234486 4.6764C0.392708 5.05322 0.626107 5.394 0.920489 5.678C1.21487 5.96201 1.56408 6.18332 1.94689 6.32847C2.3297 6.47361 2.7381 6.53956 3.14725 6.52231H3.17371C3.58358 6.5466 3.99411 6.48726 4.38022 6.34792C4.76633 6.20858 5.1199 5.99216 5.41934 5.71189C5.71877 5.43163 5.95778 5.0934 6.12176 4.71787C6.28573 4.34234 6.37124 3.9374 6.37304 3.52779C6.37484 3.11818 6.2929 2.71251 6.13223 2.33556C5.97156 1.95861 5.73554 1.6183 5.43858 1.33542C5.14162 1.05254 4.78996 0.833043 4.4051 0.690328C4.02023 0.547613 3.61024 0.484683 3.20017 0.505383ZM3.17372 4.65862H3.14725C2.98572 4.67819 2.82186 4.66307 2.66666 4.61429C2.51146 4.56551 2.36851 4.48418 2.2474 4.37577C2.12628 4.26736 2.02981 4.13437 1.96444 3.98571C1.89907 3.83706 1.86631 3.67617 1.86837 3.51386C1.86837 2.81861 2.39106 2.36907 3.20017 2.36907C3.36335 2.34736 3.5293 2.3608 3.68684 2.40847C3.84438 2.45614 3.98985 2.53693 4.11346 2.64541C4.23706 2.75388 4.33593 2.88753 4.4034 3.03733C4.47087 3.18714 4.50538 3.34963 4.5046 3.51386C4.5046 4.2091 3.98191 4.65862 3.17372 4.65862Z" fill="#F1F1F1" fill-opacity="0.7"/>
</svg>
