<svg width="98" height="77" viewBox="0 0 98 77" fill="none" xmlns="http://www.w3.org/2000/svg">
<path d="M30.4033 64.286C30.4033 64.8647 30.2447 65.3827 29.9273 65.84C29.61 66.288 29.176 66.6613 28.6253 66.96C28.98 67.2027 29.26 67.5013 29.4653 67.856C29.68 68.2013 29.7873 68.584 29.7873 69.004C29.7873 69.508 29.6333 70.0073 29.3253 70.502C29.0267 70.9873 28.6253 71.4213 28.1213 71.804C27.6173 72.1773 27.0433 72.4807 26.3993 72.714C25.7553 72.9473 25.0973 73.064 24.4253 73.064C23.6973 73.064 23.058 72.924 22.5073 72.644C21.966 72.3733 21.5413 71.986 21.2333 71.482C21.3267 71.202 21.448 70.8567 21.5973 70.446C21.756 70.026 21.9287 69.5873 22.1153 69.13C22.302 68.6633 22.4887 68.2013 22.6753 67.744C22.8713 67.2867 23.0533 66.876 23.2213 66.512C23.576 65.7187 23.8933 65.0607 24.1733 64.538C24.4533 64.0153 24.71 63.6 24.9433 63.292C24.43 63.4507 23.9633 63.6327 23.5433 63.838C23.1233 64.034 22.8153 64.2253 22.6193 64.412C22.5353 64.356 22.4467 64.272 22.3533 64.16C22.2693 64.048 22.1853 63.9267 22.1013 63.796C22.0267 63.656 21.9613 63.516 21.9053 63.376C21.8587 63.236 21.8307 63.11 21.8213 62.998C22.064 62.83 22.3767 62.6713 22.7593 62.522C23.1513 62.3633 23.576 62.228 24.0333 62.116C24.4907 62.004 24.9573 61.9153 25.4333 61.85C25.9187 61.7847 26.3807 61.752 26.8193 61.752C27.9393 61.752 28.8167 61.976 29.4513 62.424C30.086 62.872 30.4033 63.4927 30.4033 64.286ZM25.0693 67.632C24.892 67.548 24.7287 67.422 24.5793 67.254C24.3647 67.73 24.1593 68.1967 23.9633 68.654C23.7767 69.1113 23.6087 69.536 23.4593 69.928C23.31 70.32 23.1887 70.6607 23.0953 70.95C23.002 71.2393 22.9507 71.4493 22.9413 71.58C23.072 71.6547 23.226 71.7107 23.4033 71.748C23.59 71.7853 23.8187 71.804 24.0893 71.804C24.724 71.804 25.3307 71.7153 25.9093 71.538C26.488 71.3607 26.9967 71.1227 27.4353 70.824C27.874 70.516 28.224 70.166 28.4853 69.774C28.7467 69.382 28.8773 68.9713 28.8773 68.542C28.8773 67.926 28.6113 67.4827 28.0793 67.212C27.3513 67.5107 26.53 67.66 25.6153 67.66C25.4847 67.66 25.382 67.66 25.3073 67.66C25.242 67.66 25.1627 67.6507 25.0693 67.632ZM27.7853 62.774C27.5893 62.774 27.3793 62.788 27.1553 62.816C26.9407 62.8347 26.712 62.8673 26.4693 62.914C26.5067 62.9513 26.5347 62.9933 26.5533 63.04C26.5813 63.0773 26.6047 63.1193 26.6233 63.166C26.5393 63.278 26.4367 63.4413 26.3153 63.656C26.194 63.8707 26.0587 64.1227 25.9093 64.412C25.76 64.692 25.6013 65.0047 25.4333 65.35C25.2747 65.6953 25.1113 66.05 24.9433 66.414C25.102 66.3767 25.2933 66.3487 25.5173 66.33C25.7507 66.302 25.9793 66.288 26.2033 66.288C26.3247 66.288 26.4413 66.2927 26.5533 66.302C26.6747 66.3113 26.7913 66.3253 26.9033 66.344C27.3513 66.2693 27.7527 66.162 28.1073 66.022C28.4713 65.8727 28.784 65.7047 29.0453 65.518C29.3067 65.322 29.5073 65.1073 29.6473 64.874C29.7873 64.6407 29.8573 64.3933 29.8573 64.132C29.8573 63.684 29.68 63.348 29.3253 63.124C28.9707 62.8907 28.4573 62.774 27.7853 62.774ZM35.5938 66.344C35.6872 66.344 35.7945 66.3627 35.9158 66.4C36.0465 66.428 36.1632 66.47 36.2658 66.526C36.3685 66.5727 36.4525 66.624 36.5178 66.68C36.5925 66.736 36.6298 66.7873 36.6298 66.834C36.4432 67.226 36.2705 67.6227 36.1118 68.024C35.9532 68.416 35.8178 68.794 35.7058 69.158C35.5938 69.522 35.5052 69.8627 35.4398 70.18C35.3838 70.4973 35.3558 70.7727 35.3558 71.006C35.3558 71.2673 35.3838 71.4867 35.4398 71.664C35.4958 71.832 35.5892 71.9533 35.7198 72.028C35.6078 72.1027 35.4632 72.1633 35.2858 72.21C35.1085 72.2567 34.9498 72.28 34.8098 72.28C34.3058 72.28 34.0538 71.9347 34.0538 71.244C34.0538 70.712 34.2312 69.984 34.5858 69.06C34.3992 69.4893 34.1845 69.8953 33.9418 70.278C33.6992 70.6513 33.4518 70.9827 33.1998 71.272C32.9478 71.5613 32.6912 71.7993 32.4298 71.986C32.1778 72.1633 31.9445 72.2707 31.7298 72.308C31.3845 72.2893 31.1045 72.126 30.8898 71.818C30.6752 71.5007 30.5678 71.0993 30.5678 70.614C30.5678 70.0913 30.6798 69.5407 30.9038 68.962C31.1278 68.3833 31.4125 67.8467 31.7578 67.352C32.1125 66.8573 32.4952 66.4467 32.9058 66.12C33.3165 65.784 33.7132 65.6067 34.0958 65.588C34.1892 65.616 34.2918 65.672 34.4038 65.756C34.5252 65.84 34.6372 65.938 34.7398 66.05C34.8518 66.162 34.9452 66.2787 35.0198 66.4C35.0945 66.512 35.1365 66.61 35.1458 66.694C34.7725 66.75 34.3852 66.932 33.9838 67.24C33.5918 67.548 33.2325 67.9213 32.9058 68.36C32.5885 68.7893 32.3272 69.2513 32.1218 69.746C31.9165 70.2407 31.8138 70.7027 31.8138 71.132C31.8138 71.3093 31.8792 71.4213 32.0098 71.468C32.2805 71.412 32.5932 71.1833 32.9478 70.782C33.3025 70.3713 33.7318 69.7413 34.2358 68.892C34.3292 68.724 34.4318 68.5373 34.5438 68.332C34.6652 68.1267 34.7865 67.912 34.9078 67.688C35.0292 67.464 35.1458 67.24 35.2578 67.016C35.3792 66.7827 35.4912 66.5587 35.5938 66.344ZM37.3146 69.536C37.3146 69.004 37.422 68.4907 37.6366 67.996C37.8606 67.492 38.15 67.0487 38.5046 66.666C38.8686 66.274 39.2793 65.9613 39.7366 65.728C40.2033 65.4853 40.684 65.364 41.1786 65.364C41.664 65.364 42.0373 65.4853 42.2986 65.728C42.56 65.9707 42.6906 66.316 42.6906 66.764C42.6906 66.9787 42.658 67.1887 42.5926 67.394C42.5366 67.59 42.4573 67.7673 42.3546 67.926C42.2613 68.0847 42.1493 68.2153 42.0186 68.318C41.888 68.4113 41.7573 68.458 41.6266 68.458C41.5146 68.458 41.398 68.4253 41.2766 68.36C41.1646 68.2853 41.0713 68.192 40.9966 68.08C41.622 67.5107 41.9346 66.9927 41.9346 66.526C41.9346 66.2553 41.8273 66.12 41.6126 66.12C41.426 66.12 41.1926 66.2087 40.9126 66.386C40.6326 66.5633 40.362 66.7967 40.1006 67.086C39.6993 67.534 39.3913 68.0333 39.1766 68.584C38.9713 69.1253 38.8686 69.6947 38.8686 70.292C38.8686 71.048 39.0366 71.5007 39.3726 71.65C39.5126 71.6313 39.676 71.5893 39.8626 71.524C40.0493 71.4587 40.25 71.3747 40.4646 71.272C40.6793 71.16 40.8986 71.034 41.1226 70.894C41.356 70.754 41.58 70.6047 41.7946 70.446C41.832 70.474 41.8646 70.516 41.8926 70.572C41.9206 70.628 41.9346 70.6793 41.9346 70.726C41.776 70.922 41.594 71.1133 41.3886 71.3C41.1833 71.4867 40.9686 71.6593 40.7446 71.818C40.5206 71.9673 40.3013 72.0933 40.0866 72.196C39.8813 72.308 39.6993 72.378 39.5406 72.406C39.2326 72.378 38.9433 72.28 38.6726 72.112C38.402 71.9533 38.164 71.7433 37.9586 71.482C37.7626 71.2207 37.604 70.922 37.4826 70.586C37.3706 70.25 37.3146 69.9 37.3146 69.536ZM43.1375 70.684C43.1375 70.348 43.2215 69.8813 43.3895 69.284C43.5669 68.6867 43.7955 68.0333 44.0755 67.324C44.3555 66.6147 44.6729 65.882 45.0275 65.126C45.3822 64.37 45.7369 63.6653 46.0915 63.012C46.4555 62.3587 46.8009 61.794 47.1275 61.318C47.4635 60.842 47.7482 60.52 47.9815 60.352C48.1122 60.3613 48.2522 60.4173 48.4015 60.52C48.5602 60.6227 48.7049 60.7487 48.8355 60.898C48.9662 61.038 49.0735 61.1873 49.1575 61.346C49.2509 61.5047 49.2975 61.6493 49.2975 61.78C48.8775 62.116 48.4482 62.55 48.0095 63.082C47.5802 63.6047 47.1695 64.1833 46.7775 64.818C46.3855 65.4433 46.0215 66.1107 45.6855 66.82C45.3589 67.52 45.0835 68.2107 44.8595 68.892C45.1582 68.3787 45.4709 67.912 45.7975 67.492C46.1242 67.072 46.4509 66.7127 46.7775 66.414C47.1042 66.1153 47.4215 65.8867 47.7295 65.728C48.0469 65.56 48.3455 65.4713 48.6255 65.462C49.0362 65.7607 49.2415 66.1573 49.2415 66.652C49.2415 66.9507 49.1809 67.254 49.0595 67.562C48.9382 67.8607 48.7749 68.1407 48.5695 68.402C48.3735 68.654 48.1449 68.8733 47.8835 69.06C47.6315 69.2373 47.3655 69.354 47.0855 69.41C47.1789 69.7367 47.2955 70.068 47.4355 70.404C47.5849 70.74 47.7575 71.0667 47.9535 71.384C48.1589 71.7013 48.3875 71.9953 48.6395 72.266C48.9009 72.5367 49.1949 72.7653 49.5215 72.952C49.4749 73.0453 49.4049 73.1387 49.3115 73.232C49.2182 73.3253 49.1062 73.4047 48.9755 73.47C48.8449 73.5447 48.7002 73.6007 48.5415 73.638C48.3922 73.6847 48.2429 73.708 48.0935 73.708C47.8415 73.708 47.6035 73.582 47.3795 73.33C47.1649 73.078 46.9689 72.714 46.7915 72.238C46.6515 71.8553 46.5162 71.398 46.3855 70.866C46.2549 70.334 46.1382 69.7787 46.0355 69.2C46.1662 69.116 46.3295 68.9947 46.5255 68.836C46.7215 68.668 46.9269 68.4767 47.1415 68.262C47.9629 67.4687 48.3735 66.7827 48.3735 66.204C48.3735 66.1293 48.3222 66.092 48.2195 66.092C48.0329 66.1013 47.8135 66.19 47.5615 66.358C47.3095 66.526 47.0389 66.7593 46.7495 67.058C46.4695 67.3567 46.1802 67.7067 45.8815 68.108C45.5922 68.5093 45.3122 68.9433 45.0415 69.41C44.9295 69.5967 44.8269 69.8113 44.7335 70.054C44.6402 70.2967 44.5562 70.5487 44.4815 70.81C44.4162 71.062 44.3649 71.314 44.3275 71.566C44.2902 71.818 44.2715 72.0513 44.2715 72.266C44.2715 72.3967 44.2855 72.504 44.3135 72.588C44.0242 72.56 43.8469 72.4853 43.7815 72.364C43.7069 72.252 43.6415 72.1587 43.5855 72.084C43.5389 72.0187 43.4875 71.9627 43.4315 71.916C43.3475 71.8507 43.2775 71.7107 43.2215 71.496C43.1655 71.2813 43.1375 71.0107 43.1375 70.684ZM51.5802 69.396C51.2909 69.396 51.0575 69.3167 50.8802 69.158C50.7122 68.99 50.6282 68.7613 50.6282 68.472C50.6282 68.4253 50.6375 68.3553 50.6562 68.262C50.6749 68.1687 50.6935 68.0987 50.7122 68.052C50.8709 68.08 51.0202 68.0987 51.1602 68.108C51.3002 68.108 51.4822 68.108 51.7062 68.108C52.1822 68.108 52.6255 68.094 53.0362 68.066C53.4562 68.038 53.8342 68.0053 54.1702 67.968C54.5062 67.9307 54.7955 67.898 55.0382 67.87C55.2809 67.842 55.4675 67.828 55.5982 67.828C55.7755 67.828 55.9295 67.9353 56.0602 68.15C56.2002 68.3647 56.3029 68.6727 56.3682 69.074C56.1349 69.046 55.9435 69.0273 55.7942 69.018C55.6449 69.0087 55.5142 69.004 55.4022 69.004C55.0009 69.004 54.6275 69.0273 54.2822 69.074C53.9369 69.1113 53.6102 69.1533 53.3022 69.2C52.9942 69.2467 52.7002 69.2933 52.4202 69.34C52.1402 69.3773 51.8602 69.396 51.5802 69.396ZM63.1663 66.036C63.4743 66.036 63.7123 66.12 63.8803 66.288C64.0576 66.456 64.1463 66.6893 64.1463 66.988C64.1463 67.0627 64.137 67.142 64.1183 67.226C64.109 67.3007 64.095 67.366 64.0763 67.422C63.955 67.4033 63.8196 67.3893 63.6703 67.38C63.521 67.3613 63.3436 67.352 63.1383 67.352C62.737 67.352 62.331 67.3893 61.9203 67.464C61.5096 67.5293 61.1176 67.5853 60.7443 67.632C60.5296 68.1267 60.3336 68.6073 60.1563 69.074C59.979 69.5313 59.825 69.9513 59.6943 70.334C59.573 70.7167 59.475 71.048 59.4003 71.328C59.335 71.608 59.2976 71.818 59.2883 71.958C60.0443 71.7993 60.805 71.664 61.5703 71.552C62.345 71.44 63.157 71.356 64.0063 71.3C64.109 71.4587 64.193 71.6313 64.2583 71.818C64.333 72.0047 64.3703 72.2053 64.3703 72.42C64.3703 72.476 64.3703 72.5367 64.3703 72.602C64.3703 72.6673 64.361 72.7327 64.3423 72.798C64.081 72.7887 63.8056 72.7793 63.5163 72.77C63.227 72.77 62.849 72.77 62.3823 72.77C62.0743 72.77 61.7803 72.7747 61.5003 72.784C61.2296 72.8027 60.9543 72.826 60.6743 72.854C60.3943 72.882 60.0956 72.9193 59.7783 72.966C59.4703 73.0127 59.1203 73.0687 58.7283 73.134C58.299 72.966 57.8836 72.5553 57.4823 71.902C57.641 71.566 57.8603 71.0573 58.1403 70.376C58.4296 69.6853 58.7936 68.766 59.2323 67.618C58.8123 67.4873 58.537 67.254 58.4063 66.918C58.453 66.8713 58.5883 66.8153 58.8123 66.75C59.0363 66.6753 59.3116 66.6007 59.6383 66.526C59.7783 66.162 59.895 65.8447 59.9883 65.574C60.091 65.3033 60.1796 65.0513 60.2543 64.818C60.329 64.5753 60.3943 64.342 60.4503 64.118C60.5156 63.8847 60.5763 63.6327 60.6323 63.362C60.3056 63.3433 60.049 63.2547 59.8623 63.096C59.6756 62.928 59.5823 62.7133 59.5823 62.452C59.5823 62.3773 59.5916 62.2887 59.6103 62.186C59.6383 62.0833 59.6663 61.9947 59.6943 61.92C59.881 61.948 60.0583 61.9667 60.2263 61.976C60.4036 61.9853 60.6323 61.99 60.9123 61.99C61.5003 61.99 62.051 61.976 62.5643 61.948C63.0776 61.9107 63.5396 61.8733 63.9503 61.836C64.3703 61.7987 64.7296 61.766 65.0283 61.738C65.327 61.7007 65.5556 61.682 65.7143 61.682C65.929 61.682 66.1203 61.794 66.2883 62.018C66.4563 62.242 66.5823 62.5593 66.6663 62.97C66.377 62.942 66.139 62.9233 65.9523 62.914C65.775 62.9047 65.6163 62.9 65.4763 62.9C64.963 62.9 64.4916 62.928 64.0623 62.984C63.6423 63.0307 63.2363 63.082 62.8443 63.138C62.7883 63.222 62.723 63.3293 62.6483 63.46C62.583 63.5907 62.4943 63.7727 62.3823 64.006C62.2703 64.2393 62.1303 64.5333 61.9623 64.888C61.8036 65.2427 61.6076 65.686 61.3743 66.218C61.729 66.162 62.0603 66.12 62.3683 66.092C62.6856 66.0547 62.9516 66.036 63.1663 66.036ZM67.9772 65.21C68.2198 65.2847 68.4485 65.4527 68.6632 65.714C68.8778 65.966 69.0365 66.246 69.1392 66.554C69.0365 66.806 68.8778 67.1093 68.6632 67.464C68.4485 67.8187 68.2338 68.1827 68.0192 68.556C67.8045 68.92 67.6085 69.27 67.4312 69.606C67.2632 69.9327 67.1652 70.2033 67.1372 70.418C67.2865 70.2593 67.4498 70.0773 67.6272 69.872C67.8138 69.6573 67.9912 69.4473 68.1592 69.242C68.3365 69.0273 68.4998 68.836 68.6492 68.668C68.7985 68.4907 68.9152 68.36 68.9992 68.276C69.1765 68.0893 69.3865 67.8747 69.6292 67.632C69.8718 67.38 70.1238 67.1467 70.3852 66.932C70.6558 66.708 70.9265 66.5213 71.1972 66.372C71.4678 66.2133 71.7152 66.134 71.9392 66.134C72.1818 66.134 72.3825 66.218 72.5412 66.386C72.7092 66.5447 72.8398 66.7127 72.9332 66.89C72.9332 66.9087 72.8958 66.9367 72.8212 66.974C72.7558 67.002 72.6578 67.0907 72.5272 67.24C72.3965 67.408 72.2472 67.6413 72.0792 67.94C71.9205 68.2293 71.7618 68.5467 71.6032 68.892C71.4538 69.228 71.3278 69.5733 71.2252 69.928C71.1225 70.2827 71.0712 70.6047 71.0712 70.894C71.0712 71.1273 71.0992 71.2767 71.1552 71.342C71.2205 71.4073 71.3092 71.44 71.4212 71.44C71.5238 71.44 71.6312 71.4167 71.7432 71.37C71.8552 71.3233 71.9438 71.3 72.0092 71.3C72.0465 71.3187 72.0745 71.3607 72.0932 71.426C72.1212 71.482 72.1352 71.5333 72.1352 71.58C72.0605 71.6453 71.9718 71.7107 71.8692 71.776C71.7665 71.8413 71.6592 71.902 71.5472 71.958C71.4352 72.014 71.3232 72.0607 71.2112 72.098C71.1085 72.1353 71.0152 72.154 70.9312 72.154C70.6605 72.154 70.4365 72.112 70.2592 72.028C70.0912 71.9533 69.9558 71.8507 69.8532 71.72C69.7598 71.5893 69.6945 71.4353 69.6572 71.258C69.6198 71.0713 69.6012 70.8753 69.6012 70.67C69.6012 70.558 69.6105 70.432 69.6292 70.292C69.6478 70.152 69.6852 69.9887 69.7412 69.802C69.7972 69.606 69.8765 69.3773 69.9792 69.116C70.0818 68.8453 70.2125 68.5233 70.3712 68.15C70.3525 68.15 70.2265 68.2153 69.9932 68.346C69.7598 68.4767 69.5078 68.6773 69.2372 68.948C68.7985 69.368 68.4018 69.7833 68.0472 70.194C67.7018 70.6047 67.3472 71.062 66.9832 71.566C66.7778 71.8553 66.5958 72.098 66.4372 72.294C66.2878 72.4993 66.1572 72.6347 66.0452 72.7C65.8492 72.588 65.7045 72.4293 65.6112 72.224C65.5178 72.028 65.4478 71.8227 65.4012 71.608C65.4012 71.4307 65.4245 71.2067 65.4712 70.936C65.5272 70.6653 65.5972 70.3667 65.6812 70.04C65.7745 69.704 65.8865 69.354 66.0172 68.99C66.1478 68.626 66.2925 68.262 66.4512 67.898C66.8058 67.0767 67.1278 66.4327 67.4172 65.966C67.7158 65.4993 67.9025 65.2473 67.9772 65.21ZM76.3217 65.462C76.5084 65.462 76.723 65.518 76.9657 65.63C77.2084 65.742 77.423 65.8867 77.6097 66.064C77.563 65.6907 77.5024 65.3407 77.4277 65.014C77.3624 64.678 77.2597 64.3327 77.1197 63.978C76.989 63.6233 76.8117 63.236 76.5877 62.816C76.3637 62.396 76.0837 61.9153 75.7477 61.374C75.7757 61.29 75.8364 61.192 75.9297 61.08C76.0324 60.968 76.1444 60.8653 76.2657 60.772C76.3964 60.6693 76.527 60.5807 76.6577 60.506C76.7977 60.4313 76.9284 60.3847 77.0497 60.366C77.311 60.6553 77.5584 61.0193 77.7917 61.458C78.025 61.8873 78.2304 62.354 78.4077 62.858C78.585 63.3527 78.7204 63.866 78.8137 64.398C78.9164 64.93 78.9677 65.4387 78.9677 65.924C78.9677 66.4093 78.9117 66.9087 78.7997 67.422C78.697 67.9353 78.5477 68.4393 78.3517 68.934C78.165 69.4193 77.9457 69.8813 77.6937 70.32C77.4417 70.7587 77.1664 71.1507 76.8677 71.496C76.5784 71.8413 76.275 72.1213 75.9577 72.336C75.6404 72.56 75.323 72.7 75.0057 72.756C74.3617 72.6813 73.867 72.4713 73.5217 72.126C73.1857 71.79 73.0177 71.3233 73.0177 70.726C73.0177 70.4087 73.0644 70.0633 73.1577 69.69C73.2604 69.3167 73.391 68.948 73.5497 68.584C73.7177 68.2107 73.909 67.8513 74.1237 67.506C74.3477 67.1513 74.581 66.834 74.8237 66.554C75.0757 66.274 75.3277 66.036 75.5797 65.84C75.8317 65.644 76.079 65.518 76.3217 65.462ZM74.8937 72.196C75.2204 72.084 75.547 71.8367 75.8737 71.454C76.2004 71.0713 76.4944 70.6233 76.7557 70.11C77.017 69.5873 77.227 69.032 77.3857 68.444C77.5537 67.8467 77.6377 67.2727 77.6377 66.722C77.6377 66.5633 77.6377 66.4653 77.6377 66.428C77.6377 66.3907 77.633 66.3533 77.6237 66.316C77.3997 66.4093 77.1617 66.568 76.9097 66.792C76.6577 67.016 76.4057 67.2773 76.1537 67.576C75.9017 67.8653 75.6637 68.1827 75.4397 68.528C75.2157 68.8733 75.015 69.2187 74.8377 69.564C74.6604 69.9093 74.5204 70.2407 74.4177 70.558C74.315 70.8753 74.2637 71.1553 74.2637 71.398C74.2637 71.8647 74.4737 72.1307 74.8937 72.196Z" fill="white"/>
<path d="M63.1335 35.1465L62.9386 35.6997L63.3263 36.1398L72.997 47.119C72.9957 47.1295 72.9941 47.1412 72.9918 47.1542C72.9672 47.2935 72.879 47.5348 72.6298 47.8177L70.2791 50.4866L60.5332 39.422L60.0436 38.8662L59.3693 39.1724C57.4232 40.0562 55.0333 39.6638 53.1552 37.5455C51.6328 35.6135 51.0616 33.2367 51.4218 31.0202L54.977 35.0565L55.7274 35.9084L56.4778 35.0565L59.8175 31.2648L60.3997 30.6039L59.8175 29.9429L56.2388 25.8799C58.1271 25.4236 60.1426 26.0254 61.6564 27.744L61.6758 27.7661L61.6965 27.7869C63.528 29.6352 63.9835 32.734 63.1335 35.1465ZM28.5325 39.1871H45.9671C46.4637 40.3944 47.1551 41.4297 47.9097 42.3329H25V35.208C25 32.1945 27.6266 29.7303 31.5389 27.9603C35.3716 26.2264 40.0017 25.3748 43.0841 25.3748C43.8613 25.3748 44.8827 25.5024 46.0202 25.6755C45.5594 26.6312 45.2359 27.6605 44.9497 28.73C44.8243 28.7121 44.6946 28.6913 44.5563 28.6689L44.5337 28.6652C44.127 28.5992 43.6423 28.5205 43.0841 28.5205C39.3332 28.5205 35.556 29.5805 32.7186 30.841C31.2988 31.4718 30.0791 32.1682 29.1963 32.8364C28.7572 33.1688 28.3725 33.5158 28.0875 33.8672C27.8267 34.1889 27.5325 34.6558 27.5325 35.208V38.1871V39.1871H28.5325ZM51.6262 10.8332C51.6262 16.3622 47.6645 20.6665 43.0841 20.6665C38.5038 20.6665 34.5421 16.3622 34.5421 10.8332C34.5421 5.30421 38.5038 1 43.0841 1C47.6645 1 51.6262 5.30421 51.6262 10.8332ZM48.8552 10.8332C48.8552 7.42483 46.376 4.41661 43.0841 4.41661C39.7923 4.41661 37.3131 7.42483 37.3131 10.8332C37.3131 14.2416 39.7923 17.2498 43.0841 17.2498C46.376 17.2498 48.8552 14.2416 48.8552 10.8332Z" fill="url(#paint0_linear_1_61)" stroke="white" stroke-width="2"/>
<defs>
<linearGradient id="paint0_linear_1_61" x1="49" y1="0" x2="49" y2="51.5932" gradientUnits="userSpaceOnUse">
<stop stop-color="#682556"/>
<stop offset="1" stop-color="#46253D"/>
</linearGradient>
</defs>
</svg>
