<svg width="98" height="73" viewBox="0 0 98 73" fill="none" xmlns="http://www.w3.org/2000/svg">
<path d="M25.5979 61.7025C25.8966 61.7025 26.1299 61.7865 26.2979 61.9545C26.4753 62.1225 26.5639 62.3558 26.5639 62.6545C26.5639 62.7291 26.5593 62.8085 26.5499 62.8925C26.5406 62.9671 26.5219 63.0325 26.4939 63.0885C26.3726 63.0698 26.2373 63.0558 26.0879 63.0465C25.9386 63.0278 25.7613 63.0185 25.5559 63.0185C25.1359 63.0185 24.7159 63.0558 24.2959 63.1305C23.8759 63.2051 23.4746 63.2658 23.0919 63.3125C22.6719 64.3018 22.3266 65.2305 22.0559 66.0985C21.7853 66.9665 21.5753 67.8251 21.4259 68.6745C21.1086 68.5998 20.8286 68.4645 20.5859 68.2685C20.3433 68.0725 20.1146 67.7971 19.8999 67.4425C19.9653 67.2931 20.0446 67.1158 20.1379 66.9105C20.2313 66.6958 20.3433 66.4298 20.4739 66.1125C20.6046 65.7858 20.7586 65.3938 20.9359 64.9365C21.1226 64.4698 21.3419 63.9145 21.5939 63.2705C21.2019 63.1398 20.9453 62.9111 20.8239 62.5845C20.8706 62.5378 21.0013 62.4865 21.2159 62.4305C21.4306 62.3651 21.6919 62.2951 21.9999 62.2205C22.1399 61.8565 22.2613 61.5345 22.3639 61.2545C22.4666 60.9651 22.5599 60.6945 22.6439 60.4425C22.7279 60.1811 22.8026 59.9291 22.8679 59.6865C22.9426 59.4345 23.0079 59.1685 23.0639 58.8885H22.9939C22.6393 58.8885 22.3499 58.8045 22.1259 58.6365C21.9113 58.4685 21.8039 58.2491 21.8039 57.9785C21.8039 57.9038 21.8133 57.8151 21.8319 57.7125C21.8599 57.6098 21.8926 57.5211 21.9299 57.4465C22.1073 57.4745 22.2799 57.4931 22.4479 57.5025C22.6253 57.5118 22.8539 57.5165 23.1339 57.5165C23.7219 57.5165 24.2726 57.5025 24.7859 57.4745C25.2993 57.4371 25.7613 57.3998 26.1719 57.3625C26.5919 57.3251 26.9513 57.2925 27.2499 57.2645C27.5486 57.2271 27.7773 57.2085 27.9359 57.2085C28.1506 57.2085 28.3419 57.3205 28.5099 57.5445C28.6779 57.7685 28.8086 58.0858 28.9019 58.4965C28.6033 58.4685 28.3606 58.4498 28.1739 58.4405C27.9966 58.4311 27.8379 58.4265 27.6979 58.4265C27.2219 58.4265 26.7833 58.4498 26.3819 58.4965C25.9899 58.5338 25.6166 58.5805 25.2619 58.6365C25.2059 58.7205 25.1406 58.8278 25.0659 58.9585C25.0006 59.0891 24.9119 59.2758 24.7999 59.5185C24.6879 59.7518 24.5433 60.0598 24.3659 60.4425C24.1979 60.8251 23.9833 61.3105 23.7219 61.8985C24.0859 61.8425 24.4313 61.7958 24.7579 61.7585C25.0939 61.7211 25.3739 61.7025 25.5979 61.7025ZM26.8185 67.2605C26.8651 66.9898 26.9445 66.6351 27.0565 66.1965C27.1778 65.7485 27.3178 65.2771 27.4765 64.7825C27.6351 64.2785 27.8031 63.7745 27.9805 63.2705C28.1578 62.7665 28.3305 62.3138 28.4985 61.9125C28.6198 61.6231 28.7271 61.3991 28.8205 61.2405C28.9138 61.0725 29.0165 60.9325 29.1285 60.8205C29.2591 60.8391 29.3945 60.8718 29.5345 60.9185C29.6745 60.9651 29.8098 61.0211 29.9405 61.0865C30.0711 61.1518 30.1878 61.2218 30.2905 61.2965C30.3931 61.3618 30.4725 61.4271 30.5285 61.4925C30.2765 61.7911 30.0525 62.1318 29.8565 62.5145C29.6698 62.8971 29.4785 63.3871 29.2825 63.9845C29.7865 63.5365 30.2298 63.1071 30.6125 62.6965C31.0045 62.2858 31.3685 61.8285 31.7045 61.3245C31.7605 61.2778 31.8585 61.2545 31.9985 61.2545C32.1291 61.2545 32.2551 61.2778 32.3765 61.3245C32.4978 61.3618 32.5818 61.4178 32.6285 61.4925C32.4605 61.9405 32.3765 62.3838 32.3765 62.8225C32.3765 63.2331 32.4371 63.5411 32.5585 63.7465C32.5491 63.8025 32.4838 63.9098 32.3625 64.0685C32.2505 64.2271 32.1245 64.3765 31.9845 64.5165C31.7325 64.3858 31.5085 64.2085 31.3125 63.9845C31.1165 63.7511 30.9718 63.4991 30.8785 63.2285C30.4398 63.5365 30.0665 63.8398 29.7585 64.1385C29.4505 64.4278 29.1845 64.7545 28.9605 65.1185C28.7458 65.4731 28.5591 65.8838 28.4005 66.3505C28.2511 66.8171 28.1065 67.3725 27.9665 68.0165C27.8825 68.0071 27.7798 67.9745 27.6585 67.9185C27.5465 67.8718 27.4298 67.8111 27.3085 67.7365C27.1965 67.6618 27.0938 67.5825 27.0005 67.4985C26.9071 67.4145 26.8465 67.3351 26.8185 67.2605ZM34.4529 68.0305C33.9209 67.9745 33.4963 67.7411 33.1789 67.3305C32.8616 66.9198 32.7029 66.3971 32.7029 65.7625C32.7029 65.3891 32.7589 65.0018 32.8709 64.6005C32.9829 64.1991 33.1416 63.8118 33.3469 63.4385C33.5523 63.0558 33.7949 62.6965 34.0749 62.3605C34.3549 62.0245 34.6583 61.7351 34.9849 61.4925C35.4983 61.1098 35.9789 60.9185 36.4269 60.9185C36.7256 61.0771 37.0196 61.4085 37.3089 61.9125C37.3556 61.9125 37.3976 61.9125 37.4349 61.9125C37.4723 61.9031 37.5143 61.8985 37.5609 61.8985C38.0556 61.8985 38.3029 62.3371 38.3029 63.2145C38.3029 63.8025 38.2049 64.3625 38.0089 64.8945C37.8223 65.4171 37.5563 65.8931 37.2109 66.3225C36.8749 66.7518 36.4689 67.1158 35.9929 67.4145C35.5263 67.7038 35.0129 67.9091 34.4529 68.0305ZM35.1669 63.6205C35.0083 63.8351 34.8589 64.0685 34.7189 64.3205C34.5789 64.5725 34.4576 64.8291 34.3549 65.0905C34.2523 65.3425 34.1729 65.5898 34.1169 65.8325C34.0609 66.0658 34.0329 66.2758 34.0329 66.4625C34.0329 66.6865 34.0703 66.9011 34.1449 67.1065C34.2196 67.3118 34.3036 67.4285 34.3969 67.4565C34.8169 67.3631 35.1996 67.1905 35.5449 66.9385C35.8996 66.6771 36.2029 66.3551 36.4549 65.9725C36.7163 65.5898 36.9169 65.1558 37.0569 64.6705C37.2063 64.1851 37.2809 63.6671 37.2809 63.1165C37.2809 62.8738 37.2669 62.6825 37.2389 62.5425C37.2109 62.4025 37.1643 62.2811 37.0989 62.1785C36.6883 62.2998 36.3196 62.4958 35.9929 62.7665C35.6756 63.0371 35.4003 63.3218 35.1669 63.6205ZM41.2486 60.7505C41.4913 60.8251 41.72 60.9931 41.9346 61.2545C42.1493 61.5065 42.308 61.7865 42.4106 62.0945C42.308 62.3465 42.1493 62.6498 41.9346 63.0045C41.72 63.3591 41.5053 63.7231 41.2906 64.0965C41.076 64.4605 40.88 64.8105 40.7026 65.1465C40.5346 65.4731 40.4366 65.7438 40.4086 65.9585C40.558 65.7998 40.7213 65.6178 40.8986 65.4125C41.0853 65.1978 41.2626 64.9878 41.4306 64.7825C41.608 64.5678 41.7713 64.3765 41.9206 64.2085C42.07 64.0311 42.1866 63.9005 42.2706 63.8165C42.448 63.6298 42.658 63.4151 42.9006 63.1725C43.1433 62.9205 43.3953 62.6871 43.6566 62.4725C43.9273 62.2485 44.198 62.0618 44.4686 61.9125C44.7393 61.7538 44.9866 61.6745 45.2106 61.6745C45.4533 61.6745 45.654 61.7585 45.8126 61.9265C45.9806 62.0851 46.1113 62.2531 46.2046 62.4305C46.2046 62.4491 46.1673 62.4771 46.0926 62.5145C46.0273 62.5425 45.9293 62.6311 45.7986 62.7805C45.668 62.9485 45.5186 63.1818 45.3506 63.4805C45.192 63.7698 45.0333 64.0871 44.8746 64.4325C44.7253 64.7685 44.5993 65.1138 44.4966 65.4685C44.394 65.8231 44.3426 66.1451 44.3426 66.4345C44.3426 66.6678 44.3706 66.8171 44.4266 66.8825C44.492 66.9478 44.5806 66.9805 44.6926 66.9805C44.7953 66.9805 44.9026 66.9571 45.0146 66.9105C45.1266 66.8638 45.2153 66.8405 45.2806 66.8405C45.318 66.8591 45.346 66.9011 45.3646 66.9665C45.3926 67.0225 45.4066 67.0738 45.4066 67.1205C45.332 67.1858 45.2433 67.2511 45.1406 67.3165C45.038 67.3818 44.9306 67.4425 44.8186 67.4985C44.7066 67.5545 44.5946 67.6011 44.4826 67.6385C44.38 67.6758 44.2866 67.6945 44.2026 67.6945C43.932 67.6945 43.708 67.6525 43.5306 67.5685C43.3626 67.4938 43.2273 67.3911 43.1246 67.2605C43.0313 67.1298 42.966 66.9758 42.9286 66.7985C42.8913 66.6118 42.8726 66.4158 42.8726 66.2105C42.8726 66.0985 42.882 65.9725 42.9006 65.8325C42.9193 65.6925 42.9566 65.5291 43.0126 65.3425C43.0686 65.1465 43.148 64.9178 43.2506 64.6565C43.3533 64.3858 43.484 64.0638 43.6426 63.6905C43.624 63.6905 43.498 63.7558 43.2646 63.8865C43.0313 64.0171 42.7793 64.2178 42.5086 64.4885C42.07 64.9085 41.6733 65.3238 41.3186 65.7345C40.9733 66.1451 40.6186 66.6025 40.2546 67.1065C40.0493 67.3958 39.8673 67.6385 39.7086 67.8345C39.5593 68.0398 39.4286 68.1751 39.3166 68.2405C39.1206 68.1285 38.976 67.9698 38.8826 67.7645C38.7893 67.5685 38.7193 67.3631 38.6726 67.1485C38.6726 66.9711 38.696 66.7471 38.7426 66.4765C38.7986 66.2058 38.8686 65.9071 38.9526 65.5805C39.046 65.2445 39.158 64.8945 39.2886 64.5305C39.4193 64.1665 39.564 63.8025 39.7226 63.4385C40.0773 62.6171 40.3993 61.9731 40.6886 61.5065C40.9873 61.0398 41.174 60.7878 41.2486 60.7505ZM47.3672 62.1785C47.3205 62.1225 47.2785 62.0058 47.2412 61.8285C47.2038 61.6418 47.1852 61.4831 47.1852 61.3525C47.4278 61.3711 47.6612 61.3898 47.8852 61.4085C48.1092 61.4178 48.3145 61.4271 48.5012 61.4365C48.6412 61.1565 48.7905 60.8811 48.9492 60.6105C49.1172 60.3305 49.2758 60.0785 49.4252 59.8545C49.5838 59.6211 49.7285 59.4251 49.8592 59.2665C49.9992 59.1078 50.1065 59.0051 50.1812 58.9585C50.2745 58.9585 50.3912 58.9771 50.5312 59.0145C50.6805 59.0425 50.8298 59.0845 50.9792 59.1405C51.1285 59.1871 51.2638 59.2385 51.3852 59.2945C51.5065 59.3505 51.5905 59.4065 51.6372 59.4625C51.3572 59.8171 51.1145 60.1485 50.9092 60.4565C50.7132 60.7551 50.4985 61.1005 50.2652 61.4925C50.4518 61.4925 50.6385 61.4878 50.8252 61.4785C51.0212 61.4691 51.2172 61.4551 51.4132 61.4365C51.4598 61.4831 51.4972 61.5438 51.5252 61.6185C51.5532 61.6838 51.5672 61.7538 51.5672 61.8285C51.1098 61.9965 50.5545 62.0898 49.9012 62.1085C49.6678 62.5565 49.4578 63.0045 49.2712 63.4525C49.0938 63.8911 48.9398 64.3158 48.8092 64.7265C48.6878 65.1371 48.5898 65.5245 48.5152 65.8885C48.4498 66.2525 48.4172 66.5791 48.4172 66.8685C48.4172 67.2791 48.5712 67.5078 48.8792 67.5545C49.1592 67.5171 49.4252 67.4471 49.6772 67.3445C49.9292 67.2418 50.1532 67.1111 50.3492 66.9525C50.4052 67.0365 50.4378 67.1065 50.4472 67.1625C50.3912 67.2465 50.2932 67.3445 50.1532 67.4565C50.0225 67.5685 49.8778 67.6758 49.7192 67.7785C49.5605 67.8905 49.4065 67.9838 49.2572 68.0585C49.1078 68.1331 48.9958 68.1751 48.9212 68.1845C48.6878 68.1751 48.4545 68.1238 48.2212 68.0305C47.9878 67.9371 47.7732 67.8205 47.5772 67.6805C47.3905 67.5405 47.2365 67.3865 47.1152 67.2185C46.9938 67.0411 46.9332 66.8685 46.9332 66.7005C46.9332 66.4765 46.9612 66.1965 47.0172 65.8605C47.0825 65.5151 47.1712 65.1418 47.2832 64.7405C47.3952 64.3391 47.5258 63.9191 47.6752 63.4805C47.8245 63.0418 47.9878 62.6078 48.1652 62.1785H47.3672ZM52.6056 64.9365C52.3163 64.9365 52.0829 64.8571 51.9056 64.6985C51.7376 64.5305 51.6536 64.3018 51.6536 64.0125C51.6536 63.9658 51.6629 63.8958 51.6816 63.8025C51.7003 63.7091 51.7189 63.6391 51.7376 63.5925C51.8963 63.6205 52.0456 63.6391 52.1856 63.6485C52.3256 63.6485 52.5076 63.6485 52.7316 63.6485C53.2076 63.6485 53.6509 63.6345 54.0616 63.6065C54.4816 63.5785 54.8596 63.5458 55.1956 63.5085C55.5316 63.4711 55.8209 63.4385 56.0636 63.4105C56.3063 63.3825 56.4929 63.3685 56.6236 63.3685C56.8009 63.3685 56.9549 63.4758 57.0856 63.6905C57.2256 63.9051 57.3283 64.2131 57.3936 64.6145C57.1603 64.5865 56.9689 64.5678 56.8196 64.5585C56.6703 64.5491 56.5396 64.5445 56.4276 64.5445C56.0263 64.5445 55.6529 64.5678 55.3076 64.6145C54.9623 64.6518 54.6356 64.6938 54.3276 64.7405C54.0196 64.7871 53.7256 64.8338 53.4456 64.8805C53.1656 64.9178 52.8856 64.9365 52.6056 64.9365ZM64.1917 61.5765C64.4997 61.5765 64.7377 61.6605 64.9057 61.8285C65.083 61.9965 65.1717 62.2298 65.1717 62.5285C65.1717 62.6031 65.1623 62.6825 65.1437 62.7665C65.1343 62.8411 65.1203 62.9065 65.1017 62.9625C64.9803 62.9438 64.845 62.9298 64.6957 62.9205C64.5463 62.9018 64.369 62.8925 64.1637 62.8925C63.7623 62.8925 63.3563 62.9298 62.9457 63.0045C62.535 63.0698 62.143 63.1258 61.7697 63.1725C61.555 63.6671 61.359 64.1478 61.1817 64.6145C61.0043 65.0718 60.8503 65.4918 60.7197 65.8745C60.5983 66.2571 60.5003 66.5885 60.4257 66.8685C60.3603 67.1485 60.323 67.3585 60.3137 67.4985C61.0697 67.3398 61.8303 67.2045 62.5957 67.0925C63.3703 66.9805 64.1823 66.8965 65.0317 66.8405C65.1343 66.9991 65.2183 67.1718 65.2837 67.3585C65.3583 67.5451 65.3957 67.7458 65.3957 67.9605C65.3957 68.0165 65.3957 68.0771 65.3957 68.1425C65.3957 68.2078 65.3863 68.2731 65.3677 68.3385C65.1063 68.3291 64.831 68.3198 64.5417 68.3105C64.2523 68.3105 63.8743 68.3105 63.4077 68.3105C63.0997 68.3105 62.8057 68.3151 62.5257 68.3245C62.255 68.3431 61.9797 68.3665 61.6997 68.3945C61.4197 68.4225 61.121 68.4598 60.8037 68.5065C60.4957 68.5531 60.1457 68.6091 59.7537 68.6745C59.3243 68.5065 58.909 68.0958 58.5077 67.4425C58.6663 67.1065 58.8857 66.5978 59.1657 65.9165C59.455 65.2258 59.819 64.3065 60.2577 63.1585C59.8377 63.0278 59.5623 62.7945 59.4317 62.4585C59.4783 62.4118 59.6137 62.3558 59.8377 62.2905C60.0617 62.2158 60.337 62.1411 60.6637 62.0665C60.8037 61.7025 60.9203 61.3851 61.0137 61.1145C61.1163 60.8438 61.205 60.5918 61.2797 60.3585C61.3543 60.1158 61.4197 59.8825 61.4757 59.6585C61.541 59.4251 61.6017 59.1731 61.6577 58.9025C61.331 58.8838 61.0743 58.7951 60.8877 58.6365C60.701 58.4685 60.6077 58.2538 60.6077 57.9925C60.6077 57.9178 60.617 57.8291 60.6357 57.7265C60.6637 57.6238 60.6917 57.5351 60.7197 57.4605C60.9063 57.4885 61.0837 57.5071 61.2517 57.5165C61.429 57.5258 61.6577 57.5305 61.9377 57.5305C62.5257 57.5305 63.0763 57.5165 63.5897 57.4885C64.103 57.4511 64.565 57.4138 64.9757 57.3765C65.3957 57.3391 65.755 57.3065 66.0537 57.2785C66.3523 57.2411 66.581 57.2225 66.7397 57.2225C66.9543 57.2225 67.1457 57.3345 67.3137 57.5585C67.4817 57.7825 67.6077 58.0998 67.6917 58.5105C67.4023 58.4825 67.1643 58.4638 66.9777 58.4545C66.8003 58.4451 66.6417 58.4405 66.5017 58.4405C65.9883 58.4405 65.517 58.4685 65.0877 58.5245C64.6677 58.5711 64.2617 58.6225 63.8697 58.6785C63.8137 58.7625 63.7483 58.8698 63.6737 59.0005C63.6083 59.1311 63.5197 59.3131 63.4077 59.5465C63.2957 59.7798 63.1557 60.0738 62.9877 60.4285C62.829 60.7831 62.633 61.2265 62.3997 61.7585C62.7543 61.7025 63.0857 61.6605 63.3937 61.6325C63.711 61.5951 63.977 61.5765 64.1917 61.5765ZM69.0025 60.7505C69.2452 60.8251 69.4739 60.9931 69.6885 61.2545C69.9032 61.5065 70.0619 61.7865 70.1645 62.0945C70.0619 62.3465 69.9032 62.6498 69.6885 63.0045C69.4739 63.3591 69.2592 63.7231 69.0445 64.0965C68.8299 64.4605 68.6339 64.8105 68.4565 65.1465C68.2885 65.4731 68.1905 65.7438 68.1625 65.9585C68.3119 65.7998 68.4752 65.6178 68.6525 65.4125C68.8392 65.1978 69.0165 64.9878 69.1845 64.7825C69.3619 64.5678 69.5252 64.3765 69.6745 64.2085C69.8239 64.0311 69.9405 63.9005 70.0245 63.8165C70.2019 63.6298 70.4119 63.4151 70.6545 63.1725C70.8972 62.9205 71.1492 62.6871 71.4105 62.4725C71.6812 62.2485 71.9519 62.0618 72.2225 61.9125C72.4932 61.7538 72.7405 61.6745 72.9645 61.6745C73.2072 61.6745 73.4079 61.7585 73.5665 61.9265C73.7345 62.0851 73.8652 62.2531 73.9585 62.4305C73.9585 62.4491 73.9212 62.4771 73.8465 62.5145C73.7812 62.5425 73.6832 62.6311 73.5525 62.7805C73.4219 62.9485 73.2725 63.1818 73.1045 63.4805C72.9459 63.7698 72.7872 64.0871 72.6285 64.4325C72.4792 64.7685 72.3532 65.1138 72.2505 65.4685C72.1479 65.8231 72.0965 66.1451 72.0965 66.4345C72.0965 66.6678 72.1245 66.8171 72.1805 66.8825C72.2459 66.9478 72.3345 66.9805 72.4465 66.9805C72.5492 66.9805 72.6565 66.9571 72.7685 66.9105C72.8805 66.8638 72.9692 66.8405 73.0345 66.8405C73.0719 66.8591 73.0999 66.9011 73.1185 66.9665C73.1465 67.0225 73.1605 67.0738 73.1605 67.1205C73.0859 67.1858 72.9972 67.2511 72.8945 67.3165C72.7919 67.3818 72.6845 67.4425 72.5725 67.4985C72.4605 67.5545 72.3485 67.6011 72.2365 67.6385C72.1339 67.6758 72.0405 67.6945 71.9565 67.6945C71.6859 67.6945 71.4619 67.6525 71.2845 67.5685C71.1165 67.4938 70.9812 67.3911 70.8785 67.2605C70.7852 67.1298 70.7199 66.9758 70.6825 66.7985C70.6452 66.6118 70.6265 66.4158 70.6265 66.2105C70.6265 66.0985 70.6359 65.9725 70.6545 65.8325C70.6732 65.6925 70.7105 65.5291 70.7665 65.3425C70.8225 65.1465 70.9019 64.9178 71.0045 64.6565C71.1072 64.3858 71.2379 64.0638 71.3965 63.6905C71.3779 63.6905 71.2519 63.7558 71.0185 63.8865C70.7852 64.0171 70.5332 64.2178 70.2625 64.4885C69.8239 64.9085 69.4272 65.3238 69.0725 65.7345C68.7272 66.1451 68.3725 66.6025 68.0085 67.1065C67.8032 67.3958 67.6212 67.6385 67.4625 67.8345C67.3132 68.0398 67.1825 68.1751 67.0705 68.2405C66.8745 68.1285 66.7299 67.9698 66.6365 67.7645C66.5432 67.5685 66.4732 67.3631 66.4265 67.1485C66.4265 66.9711 66.4499 66.7471 66.4965 66.4765C66.5525 66.2058 66.6225 65.9071 66.7065 65.5805C66.7999 65.2445 66.9119 64.8945 67.0425 64.5305C67.1732 64.1665 67.3179 63.8025 67.4765 63.4385C67.8312 62.6171 68.1532 61.9731 68.4425 61.5065C68.7412 61.0398 68.9279 60.7878 69.0025 60.7505ZM77.3471 61.0025C77.5338 61.0025 77.7484 61.0585 77.9911 61.1705C78.2338 61.2825 78.4484 61.4271 78.6351 61.6045C78.5884 61.2311 78.5278 60.8811 78.4531 60.5545C78.3878 60.2185 78.2851 59.8731 78.1451 59.5185C78.0144 59.1638 77.8371 58.7765 77.6131 58.3565C77.3891 57.9365 77.1091 57.4558 76.7731 56.9145C76.8011 56.8305 76.8618 56.7325 76.9551 56.6205C77.0578 56.5085 77.1698 56.4058 77.2911 56.3125C77.4218 56.2098 77.5524 56.1211 77.6831 56.0465C77.8231 55.9718 77.9538 55.9251 78.0751 55.9065C78.3364 56.1958 78.5838 56.5598 78.8171 56.9985C79.0504 57.4278 79.2558 57.8945 79.4331 58.3985C79.6104 58.8931 79.7458 59.4065 79.8391 59.9385C79.9418 60.4705 79.9931 60.9791 79.9931 61.4645C79.9931 61.9498 79.9371 62.4491 79.8251 62.9625C79.7224 63.4758 79.5731 63.9798 79.3771 64.4745C79.1904 64.9598 78.9711 65.4218 78.7191 65.8605C78.4671 66.2991 78.1918 66.6911 77.8931 67.0365C77.6038 67.3818 77.3004 67.6618 76.9831 67.8765C76.6658 68.1005 76.3484 68.2405 76.0311 68.2965C75.3871 68.2218 74.8924 68.0118 74.5471 67.6665C74.2111 67.3305 74.0431 66.8638 74.0431 66.2665C74.0431 65.9491 74.0898 65.6038 74.1831 65.2305C74.2858 64.8571 74.4164 64.4885 74.5751 64.1245C74.7431 63.7511 74.9344 63.3918 75.1491 63.0465C75.3731 62.6918 75.6064 62.3745 75.8491 62.0945C76.1011 61.8145 76.3531 61.5765 76.6051 61.3805C76.8571 61.1845 77.1044 61.0585 77.3471 61.0025ZM75.9191 67.7365C76.2458 67.6245 76.5724 67.3771 76.8991 66.9945C77.2258 66.6118 77.5198 66.1638 77.7811 65.6505C78.0424 65.1278 78.2524 64.5725 78.4111 63.9845C78.5791 63.3871 78.6631 62.8131 78.6631 62.2625C78.6631 62.1038 78.6631 62.0058 78.6631 61.9685C78.6631 61.9311 78.6584 61.8938 78.6491 61.8565C78.4251 61.9498 78.1871 62.1085 77.9351 62.3325C77.6831 62.5565 77.4311 62.8178 77.1791 63.1165C76.9271 63.4058 76.6891 63.7231 76.4651 64.0685C76.2411 64.4138 76.0404 64.7591 75.8631 65.1045C75.6858 65.4498 75.5458 65.7811 75.4431 66.0985C75.3404 66.4158 75.2891 66.6958 75.2891 66.9385C75.2891 67.4051 75.4991 67.6711 75.9191 67.7365Z" fill="white"/>
<mask id="path-2-inside-1_1_62" fill="white">
<path d="M69.4545 0H28.5455C26.0455 0 24 2.11063 24 4.69029V42.2126C24 44.7923 26.0455 46.9029 28.5455 46.9029H69.4545C71.9545 46.9029 74 44.7923 74 42.2126V4.69029C74 2.11063 71.9545 0 69.4545 0ZM69.4545 42.2126H28.5455V9.38059H69.4545V42.2126ZM57.1818 14.0709C60.5909 17.1196 62.6364 21.3408 62.6364 25.7966C62.6364 30.2524 60.5909 34.4737 57.1818 37.5224L53.5455 36.1153C56.5 33.7701 58.0909 29.7834 58.0909 25.7966C58.0909 21.8099 56.5 17.8231 53.5455 15.478L57.1818 14.0709ZM40.8182 14.0709L44.4545 15.478C41.5 17.8231 39.9091 21.8099 39.9091 25.7966C39.9091 29.7834 41.5 33.7701 44.4545 36.1153L40.8182 37.5224C37.4091 34.4737 35.3636 30.2524 35.3636 25.7966C35.3636 21.3408 37.4091 17.1196 40.8182 14.0709Z"/>
</mask>
<path d="M69.4545 0H28.5455C26.0455 0 24 2.11063 24 4.69029V42.2126C24 44.7923 26.0455 46.9029 28.5455 46.9029H69.4545C71.9545 46.9029 74 44.7923 74 42.2126V4.69029C74 2.11063 71.9545 0 69.4545 0ZM69.4545 42.2126H28.5455V9.38059H69.4545V42.2126ZM57.1818 14.0709C60.5909 17.1196 62.6364 21.3408 62.6364 25.7966C62.6364 30.2524 60.5909 34.4737 57.1818 37.5224L53.5455 36.1153C56.5 33.7701 58.0909 29.7834 58.0909 25.7966C58.0909 21.8099 56.5 17.8231 53.5455 15.478L57.1818 14.0709ZM40.8182 14.0709L44.4545 15.478C41.5 17.8231 39.9091 21.8099 39.9091 25.7966C39.9091 29.7834 41.5 33.7701 44.4545 36.1153L40.8182 37.5224C37.4091 34.4737 35.3636 30.2524 35.3636 25.7966C35.3636 21.3408 37.4091 17.1196 40.8182 14.0709Z" fill="url(#paint0_linear_1_62)"/>
<path d="M69.4545 42.2126V44.2126H71.4545V42.2126H69.4545ZM28.5455 42.2126H26.5455V44.2126H28.5455V42.2126ZM28.5455 9.38059V7.38059H26.5455V9.38059H28.5455ZM69.4545 9.38059H71.4545V7.38059H69.4545V9.38059ZM57.1818 37.5224L56.4601 39.3876L57.6022 39.8295L58.515 39.0132L57.1818 37.5224ZM53.5455 36.1153L52.3021 34.5488L49.5665 36.7201L52.8237 37.9805L53.5455 36.1153ZM53.5455 15.478L52.8237 13.6127L49.5665 14.8731L52.3021 17.0445L53.5455 15.478ZM40.8182 14.0709L41.5399 12.2057L40.3978 11.7637L39.485 12.5801L40.8182 14.0709ZM44.4545 15.478L45.698 17.0445L48.4335 14.8731L45.1763 13.6127L44.4545 15.478ZM44.4545 36.1153L45.1763 37.9805L48.4335 36.7201L45.698 34.5488L44.4545 36.1153ZM40.8182 37.5224L39.485 39.0132L40.3978 39.8295L41.5399 39.3876L40.8182 37.5224ZM69.4545 -2H28.5455V2H69.4545V-2ZM28.5455 -2C24.8822 -2 22 1.06566 22 4.69029H26C26 3.1556 27.2087 2 28.5455 2V-2ZM22 4.69029V42.2126H26V4.69029H22ZM22 42.2126C22 45.8373 24.8822 48.9029 28.5455 48.9029V44.9029C27.2087 44.9029 26 43.7473 26 42.2126H22ZM28.5455 48.9029H69.4545V44.9029H28.5455V48.9029ZM69.4545 48.9029C73.1178 48.9029 76 45.8373 76 42.2126H72C72 43.7473 70.7913 44.9029 69.4545 44.9029V48.9029ZM76 42.2126V4.69029H72V42.2126H76ZM76 4.69029C76 1.06566 73.1178 -2 69.4545 -2V2C70.7913 2 72 3.1556 72 4.69029H76ZM69.4545 40.2126H28.5455V44.2126H69.4545V40.2126ZM30.5455 42.2126V9.38059H26.5455V42.2126H30.5455ZM28.5455 11.3806H69.4545V7.38059H28.5455V11.3806ZM67.4545 9.38059V42.2126H71.4545V9.38059H67.4545ZM55.8486 15.5617C58.8758 18.2688 60.6364 21.9644 60.6364 25.7966H64.6364C64.6364 20.7172 62.3061 15.9703 58.515 12.5801L55.8486 15.5617ZM60.6364 25.7966C60.6364 29.6288 58.8758 33.3244 55.8486 36.0315L58.515 39.0132C62.3061 35.6229 64.6364 30.876 64.6364 25.7966H60.6364ZM57.9036 35.6571L54.2672 34.25L52.8237 37.9805L56.4601 39.3876L57.9036 35.6571ZM54.7889 37.6818C58.3203 34.8787 60.0909 30.2551 60.0909 25.7966H56.0909C56.0909 29.3117 54.6797 32.6615 52.3021 34.5488L54.7889 37.6818ZM60.0909 25.7966C60.0909 21.3382 58.3203 16.7145 54.7889 13.9115L52.3021 17.0445C54.6797 18.9317 56.0909 22.2816 56.0909 25.7966H60.0909ZM54.2672 17.3432L57.9036 15.9361L56.4601 12.2057L52.8237 13.6127L54.2672 17.3432ZM40.0964 15.9361L43.7328 17.3432L45.1763 13.6127L41.5399 12.2057L40.0964 15.9361ZM43.2111 13.9115C39.6797 16.7145 37.9091 21.3382 37.9091 25.7966H41.9091C41.9091 22.2816 43.3203 18.9317 45.698 17.0445L43.2111 13.9115ZM37.9091 25.7966C37.9091 30.2551 39.6797 34.8787 43.2111 37.6818L45.698 34.5488C43.3203 32.6615 41.9091 29.3117 41.9091 25.7966H37.9091ZM43.7328 34.25L40.0964 35.6571L41.5399 39.3876L45.1763 37.9805L43.7328 34.25ZM42.1514 36.0315C39.1242 33.3244 37.3636 29.6288 37.3636 25.7966H33.3636C33.3636 30.876 35.6939 35.6229 39.485 39.0132L42.1514 36.0315ZM37.3636 25.7966C37.3636 21.9644 39.1242 18.2688 42.1514 15.5617L39.485 12.5801C35.6939 15.9703 33.3636 20.7172 33.3636 25.7966H37.3636Z" fill="white" mask="url(#path-2-inside-1_1_62)"/>
<defs>
<linearGradient id="paint0_linear_1_62" x1="49" y1="0" x2="49" y2="46.9029" gradientUnits="userSpaceOnUse">
<stop stop-color="#40606B"/>
<stop offset="1" stop-color="#30292F"/>
</linearGradient>
</defs>
</svg>
