<svg width="98" height="76" viewBox="0 0 98 76" fill="none" xmlns="http://www.w3.org/2000/svg">
<path d="M14.3345 60.7582C13.9238 61.3088 13.5505 61.9155 13.2145 62.5782C12.8785 63.2408 12.5892 63.9222 12.3465 64.6222C12.1132 65.3128 11.9312 65.9988 11.8005 66.6802C11.6792 67.3522 11.6185 67.9822 11.6185 68.5702C11.6185 69.2982 11.7258 69.8255 11.9405 70.1522C12.1552 70.4788 12.5238 70.6422 13.0465 70.6422C13.6532 70.6422 14.1852 70.4322 14.6425 70.0122C15.0998 69.5828 15.5292 68.9948 15.9305 68.2482C16.1918 67.7628 16.4158 67.2308 16.6025 66.6522C16.7892 66.0735 16.9385 65.4808 17.0505 64.8742C17.1718 64.2582 17.2605 63.6422 17.3165 63.0262C17.3725 62.4008 17.4005 61.8035 17.4005 61.2342C17.4005 60.8702 17.3958 60.6042 17.3865 60.4362C17.3772 60.2682 17.3632 60.1328 17.3445 60.0302C17.3725 60.0302 17.4425 60.0395 17.5545 60.0582C17.6665 60.0768 17.7925 60.1002 17.9325 60.1282C18.0818 60.1562 18.2265 60.1935 18.3665 60.2402C18.5158 60.2868 18.6418 60.3382 18.7445 60.3942C18.6978 61.1035 18.6092 61.8362 18.4785 62.5922C18.3572 63.3482 18.1938 64.0948 17.9885 64.8322C17.7832 65.5695 17.5452 66.2788 17.2745 66.9602C17.0038 67.6415 16.7005 68.2528 16.3645 68.7942C15.8698 69.5968 15.3145 70.2222 14.6985 70.6702C14.0825 71.1275 13.3545 71.3562 12.5145 71.3562C11.6558 71.3562 10.9885 71.1042 10.5125 70.6002C10.0365 70.1055 9.79851 69.3495 9.79851 68.3322C9.79851 67.7442 9.86384 67.0815 9.99451 66.3442C10.1252 65.5975 10.2978 64.8415 10.5125 64.0762C10.7365 63.3015 10.9932 62.5502 11.2825 61.8222C11.5718 61.0848 11.8752 60.4268 12.1925 59.8482C12.3512 59.8575 12.5378 59.8902 12.7525 59.9462C12.9672 60.0022 13.1772 60.0768 13.3825 60.1702C13.5878 60.2542 13.7745 60.3522 13.9425 60.4642C14.1198 60.5668 14.2505 60.6648 14.3345 60.7582ZM19.1402 69.3822C19.1402 69.0462 19.1916 68.6122 19.2942 68.0802C19.4062 67.5388 19.5462 66.9602 19.7142 66.3442C19.8916 65.7188 20.0922 65.0842 20.3162 64.4402C20.5402 63.7868 20.7689 63.1755 21.0022 62.6062C21.2356 62.0368 21.4642 61.5375 21.6882 61.1082C21.9122 60.6788 22.1129 60.3708 22.2902 60.1842C22.3836 60.1935 22.5049 60.2308 22.6542 60.2962C22.8129 60.3522 22.9716 60.4222 23.1302 60.5062C23.2889 60.5902 23.4336 60.6835 23.5642 60.7862C23.6949 60.8795 23.7789 60.9682 23.8162 61.0522C23.5456 61.2948 23.2749 61.6635 23.0042 62.1582C22.7429 62.6435 22.4862 63.1988 22.2342 63.8242C21.9916 64.4495 21.7629 65.1122 21.5482 65.8122C21.3336 66.5028 21.1469 67.1748 20.9882 67.8282C20.8296 68.4815 20.7036 69.0882 20.6102 69.6482C20.5262 70.2082 20.4842 70.6608 20.4842 71.0062C20.4842 71.1648 20.4982 71.2628 20.5262 71.3002C20.3209 71.2908 20.1716 71.2535 20.0782 71.1882C19.9849 71.1322 19.9102 71.0668 19.8542 70.9922C19.8076 70.9268 19.7609 70.8568 19.7142 70.7822C19.6769 70.7168 19.6162 70.6655 19.5322 70.6282C19.4669 70.6002 19.4109 70.5348 19.3642 70.4322C19.3176 70.3295 19.2756 70.2175 19.2382 70.0962C19.2102 69.9655 19.1869 69.8348 19.1682 69.7042C19.1496 69.5735 19.1402 69.4662 19.1402 69.3822ZM32.0822 59.7782C31.2982 61.1502 30.4769 62.4848 29.6182 63.7822C28.7596 65.0795 27.8962 66.2882 27.0282 67.4082C26.1602 68.5282 25.3109 69.5362 24.4802 70.4322C23.6496 71.3282 22.8749 72.0562 22.1562 72.6162C22.0536 72.5975 21.9369 72.5228 21.8062 72.3922C21.6849 72.2708 21.6056 72.1308 21.5682 71.9722C21.9136 71.7668 22.2869 71.4635 22.6882 71.0622C23.0989 70.6608 23.5236 70.1942 23.9622 69.6622C24.4102 69.1302 24.8629 68.5468 25.3202 67.9122C25.7869 67.2775 26.2396 66.6242 26.6782 65.9522C27.1169 65.2802 27.5369 64.6082 27.9382 63.9362C28.3489 63.2548 28.7176 62.6062 29.0442 61.9902C29.3802 61.3742 29.6696 60.8095 29.9122 60.2962C30.1549 59.7735 30.3369 59.3302 30.4582 58.9662C30.5702 58.9662 30.7102 58.9942 30.8782 59.0502C31.0556 59.1062 31.2282 59.1762 31.3962 59.2602C31.5642 59.3442 31.7136 59.4328 31.8442 59.5262C31.9749 59.6195 32.0542 59.7035 32.0822 59.7782ZM36.1411 60.7582C35.7305 61.3088 35.3571 61.9155 35.0211 62.5782C34.6851 63.2408 34.3958 63.9222 34.1531 64.6222C33.9198 65.3128 33.7378 65.9988 33.6071 66.6802C33.4858 67.3522 33.4251 67.9822 33.4251 68.5702C33.4251 69.2982 33.5325 69.8255 33.7471 70.1522C33.9618 70.4788 34.3305 70.6422 34.8531 70.6422C35.4598 70.6422 35.9918 70.4322 36.4491 70.0122C36.9065 69.5828 37.3358 68.9948 37.7371 68.2482C37.9985 67.7628 38.2225 67.2308 38.4091 66.6522C38.5958 66.0735 38.7451 65.4808 38.8571 64.8742C38.9785 64.2582 39.0671 63.6422 39.1231 63.0262C39.1791 62.4008 39.2071 61.8035 39.2071 61.2342C39.2071 60.8702 39.2025 60.6042 39.1931 60.4362C39.1838 60.2682 39.1698 60.1328 39.1511 60.0302C39.1791 60.0302 39.2491 60.0395 39.3611 60.0582C39.4731 60.0768 39.5991 60.1002 39.7391 60.1282C39.8885 60.1562 40.0331 60.1935 40.1731 60.2402C40.3225 60.2868 40.4485 60.3382 40.5511 60.3942C40.5045 61.1035 40.4158 61.8362 40.2851 62.5922C40.1638 63.3482 40.0005 64.0948 39.7951 64.8322C39.5898 65.5695 39.3518 66.2788 39.0811 66.9602C38.8105 67.6415 38.5071 68.2528 38.1711 68.7942C37.6765 69.5968 37.1211 70.2222 36.5051 70.6702C35.8891 71.1275 35.1611 71.3562 34.3211 71.3562C33.4625 71.3562 32.7951 71.1042 32.3191 70.6002C31.8431 70.1055 31.6051 69.3495 31.6051 68.3322C31.6051 67.7442 31.6705 67.0815 31.8011 66.3442C31.9318 65.5975 32.1045 64.8415 32.3191 64.0762C32.5431 63.3015 32.7998 62.5502 33.0891 61.8222C33.3785 61.0848 33.6818 60.4268 33.9991 59.8482C34.1578 59.8575 34.3445 59.8902 34.5591 59.9462C34.7738 60.0022 34.9838 60.0768 35.1891 60.1702C35.3945 60.2542 35.5811 60.3522 35.7491 60.4642C35.9265 60.5668 36.0571 60.6648 36.1411 60.7582ZM48.0068 70.2362C47.9228 70.3202 47.7968 70.4135 47.6288 70.5162C47.4701 70.6282 47.2975 70.7262 47.1108 70.8102C46.9241 70.9035 46.7328 70.9828 46.5368 71.0482C46.3501 71.1228 46.1961 71.1648 46.0748 71.1742C45.9535 71.1742 45.8461 71.1275 45.7528 71.0342C45.6595 70.9408 45.5615 70.7262 45.4588 70.3902C45.3561 70.0635 45.2348 69.5875 45.0948 68.9622C44.9641 68.3275 44.7961 67.4688 44.5908 66.3862C44.0588 66.9368 43.5641 67.4688 43.1068 67.9822C42.6495 68.4955 42.2575 68.9715 41.9308 69.4102C41.6041 69.8488 41.3475 70.2315 41.1608 70.5582C40.9741 70.8848 40.8808 71.1322 40.8808 71.3002C40.7688 71.2908 40.6521 71.2488 40.5308 71.1742C40.4188 71.0995 40.3161 71.0108 40.2228 70.9082C40.1295 70.8055 40.0501 70.6935 39.9848 70.5722C39.9288 70.4508 39.9008 70.3342 39.9008 70.2222C39.9288 70.1195 39.9988 69.9748 40.1108 69.7882C40.2228 69.6015 40.3628 69.4008 40.5308 69.1862C40.8855 68.7288 41.3895 68.2015 42.0428 67.6042C42.7055 66.9975 43.5035 66.3302 44.4368 65.6022C43.8301 62.5875 42.9715 61.0802 41.8608 61.0802C41.9728 60.8095 42.1501 60.5715 42.3928 60.3662C42.6448 60.1608 42.9108 60.0348 43.1908 59.9882C43.4988 59.9882 43.7508 60.0302 43.9468 60.1142C44.1428 60.1888 44.3201 60.3848 44.4788 60.7022C44.6375 61.0195 44.7961 61.5002 44.9548 62.1442C45.1135 62.7788 45.3141 63.6515 45.5568 64.7622C45.8648 64.4355 46.1588 64.1042 46.4388 63.7682C46.7281 63.4228 46.9941 63.0915 47.2368 62.7742C47.4795 62.4568 47.6941 62.1628 47.8808 61.8922C48.0675 61.6215 48.2121 61.3882 48.3148 61.1922C48.4175 61.0148 48.4688 60.8328 48.4688 60.6462C48.4688 60.4782 48.4175 60.2588 48.3148 59.9882C48.6135 60.1655 48.8375 60.3335 48.9868 60.4922C49.1455 60.6415 49.2808 60.8515 49.3928 61.1222C49.3741 61.3462 49.3088 61.5702 49.1968 61.7942C49.0941 62.0182 48.9075 62.2888 48.6368 62.6062C48.3755 62.9142 48.0115 63.2968 47.5448 63.7542C47.0781 64.2115 46.4668 64.7808 45.7108 65.4622C45.8881 66.3022 46.0608 67.0115 46.2288 67.5902C46.3968 68.1688 46.5695 68.6448 46.7468 69.0182C46.9241 69.3822 47.1155 69.6622 47.3208 69.8582C47.5261 70.0448 47.7548 70.1708 48.0068 70.2362ZM53.5508 69.4522C53.6908 69.1442 53.8588 68.7475 54.0548 68.2622C54.2508 67.7768 54.4561 67.2542 54.6708 66.6942C54.8855 66.1248 55.1048 65.5462 55.3288 64.9582C55.5528 64.3608 55.7628 63.7962 55.9588 63.2642C56.1548 62.7322 56.3228 62.2562 56.4628 61.8362C56.6121 61.4162 56.7195 61.0942 56.7848 60.8702C56.1968 61.1128 55.6928 61.4815 55.2728 61.9762C54.8528 62.4708 54.5355 63.0915 54.3208 63.8382C54.1061 63.7635 53.9101 63.6328 53.7328 63.4462C53.5555 63.2502 53.4388 63.0075 53.3828 62.7182C53.4761 62.2888 53.6488 61.8968 53.9008 61.5422C54.1621 61.1875 54.4888 60.8842 54.8808 60.6322C55.2728 60.3802 55.7255 60.1888 56.2388 60.0582C56.7521 59.9182 57.3028 59.8482 57.8908 59.8482C58.6375 59.8482 59.3235 59.9602 59.9488 60.1842C60.5741 60.3988 61.1108 60.7022 61.5588 61.0942C62.0068 61.4862 62.3568 61.9575 62.6088 62.5082C62.8608 63.0588 62.9868 63.6702 62.9868 64.3422C62.9868 65.2568 62.8188 66.1295 62.4828 66.9602C62.1468 67.7908 61.6895 68.5235 61.1108 69.1582C60.5415 69.7928 59.8788 70.2968 59.1228 70.6702C58.3668 71.0528 57.5735 71.2442 56.7428 71.2442C55.9775 71.2442 55.3195 71.0902 54.7688 70.7822C54.2275 70.4835 53.8215 70.0402 53.5508 69.4522ZM58.4928 60.5482C58.0261 60.5482 57.5828 60.6135 57.1628 60.7442C57.5735 60.8935 57.9141 61.0522 58.1848 61.2202C58.4555 61.3788 58.6421 61.5048 58.7448 61.5982C58.6701 61.7008 58.5581 61.8828 58.4088 62.1442C58.2688 62.4055 58.1008 62.7228 57.9048 63.0962C57.7181 63.4695 57.5175 63.8802 57.3028 64.3282C57.0881 64.7668 56.8781 65.2195 56.6728 65.6862C56.1408 66.8715 55.7535 67.8048 55.5108 68.4862C55.2775 69.1675 55.1608 69.6388 55.1608 69.9002C55.2915 69.9468 55.4501 69.9795 55.6368 69.9982C55.8235 70.0168 56.0241 70.0262 56.2388 70.0262C56.9948 70.0262 57.7088 69.8535 58.3808 69.5082C59.0621 69.1535 59.6548 68.6822 60.1588 68.0942C60.6721 67.5062 61.0735 66.8248 61.3628 66.0502C61.6615 65.2662 61.8108 64.4448 61.8108 63.5862C61.8108 62.6248 61.5121 61.8782 60.9148 61.3462C60.3175 60.8142 59.5101 60.5482 58.4928 60.5482ZM68.4653 64.3842C68.428 64.9628 68.3253 65.4622 68.1573 65.8822C67.9893 66.2928 67.7466 66.6568 67.4293 66.9742C67.1213 67.2822 66.7433 67.5622 66.2953 67.8142C65.8473 68.0662 65.3246 68.3088 64.7273 68.5422C64.7273 68.5982 64.7226 68.6588 64.7133 68.7242C64.7133 68.7802 64.7133 68.8408 64.7133 68.9062C64.7133 69.0275 64.7226 69.1535 64.7413 69.2842C64.76 69.4148 64.7926 69.5362 64.8393 69.6482C64.886 69.7602 64.9513 69.8535 65.0353 69.9282C65.1193 69.9935 65.2266 70.0262 65.3573 70.0262C65.6093 70.0262 65.8566 69.9702 66.0993 69.8582C66.342 69.7462 66.5706 69.6108 66.7853 69.4522C67.0093 69.2842 67.2146 69.1068 67.4013 68.9202C67.5973 68.7242 67.77 68.5468 67.9193 68.3882C68.0126 68.4722 68.092 68.5515 68.1573 68.6262C67.7373 69.1862 67.2753 69.6528 66.7713 70.0262C66.2766 70.3902 65.8053 70.6235 65.3573 70.7262C64.7133 70.6515 64.2093 70.4182 63.8453 70.0262C63.4906 69.6248 63.3133 69.1442 63.3133 68.5842C63.3133 68.2015 63.3646 67.8142 63.4673 67.4222C63.5793 67.0208 63.7286 66.6382 63.9153 66.2742C64.1113 65.9008 64.3353 65.5508 64.5873 65.2242C64.8486 64.8975 65.124 64.6128 65.4133 64.3702C65.712 64.1275 66.0153 63.9362 66.3233 63.7962C66.6406 63.6562 66.9533 63.5862 67.2613 63.5862C67.6906 63.6422 68.092 63.9082 68.4653 64.3842ZM67.4993 64.8462C67.2473 64.8835 66.986 64.9862 66.7153 65.1542C66.4446 65.3222 66.188 65.5462 65.9453 65.8262C65.712 66.1062 65.4973 66.4328 65.3013 66.8062C65.1053 67.1795 64.9513 67.5808 64.8393 68.0102C65.586 67.6368 66.2066 67.1795 66.7013 66.6382C67.196 66.0875 67.462 65.4902 67.4993 64.8462ZM73.9434 64.6082C73.9341 64.7855 73.9014 64.9722 73.8454 65.1682C73.7988 65.3548 73.7381 65.5275 73.6634 65.6862C73.5888 65.8355 73.5094 65.9615 73.4254 66.0642C73.3414 66.1668 73.2621 66.2182 73.1874 66.2182C73.0848 66.2088 73.0241 66.1388 73.0054 66.0082C73.0054 65.9802 73.0148 65.9382 73.0334 65.8822C73.0614 65.8168 73.0894 65.7468 73.1174 65.6722C73.1454 65.5975 73.1688 65.5228 73.1874 65.4482C73.2154 65.3735 73.2294 65.3082 73.2294 65.2522C73.2294 65.1215 73.1968 65.0142 73.1314 64.9302C73.0754 64.8368 72.9961 64.7902 72.8934 64.7902C72.5201 64.7902 72.2354 65.0235 72.0394 65.4902C71.8434 65.9568 71.7454 66.6428 71.7454 67.5482C71.7454 67.6415 71.7501 67.6975 71.7594 67.7162C71.9554 67.7068 72.1281 67.7022 72.2774 67.7022C72.4361 67.6928 72.5901 67.6882 72.7394 67.6882C72.7488 67.7068 72.7534 67.7442 72.7534 67.8002C72.7534 67.8842 72.7348 67.9448 72.6974 67.9822C72.4828 68.0288 72.3101 68.0708 72.1794 68.1082C72.0581 68.1362 71.9648 68.1642 71.8994 68.1922C71.8341 68.2202 71.7921 68.2528 71.7734 68.2902C71.7641 68.3182 71.7594 68.3602 71.7594 68.4162C71.7594 68.4908 71.7594 68.5655 71.7594 68.6402C71.7688 68.7148 71.7734 68.8082 71.7734 68.9202C71.7734 69.7042 71.5588 70.3342 71.1294 70.8102C70.7094 71.2862 70.1214 71.5615 69.3654 71.6362C69.2348 71.6268 69.0994 71.5895 68.9594 71.5242C68.8194 71.4588 68.6841 71.3748 68.5534 71.2722C68.4321 71.1695 68.3248 71.0528 68.2314 70.9222C68.1381 70.8008 68.0728 70.6748 68.0354 70.5442C68.0354 70.1895 68.1101 69.8535 68.2594 69.5362C68.4088 69.2095 68.6094 68.9248 68.8614 68.6822C69.1228 68.4302 69.4261 68.2295 69.7714 68.0802C70.1261 67.9215 70.5088 67.8282 70.9194 67.8002C70.9194 67.5668 70.8961 67.3382 70.8494 67.1142C70.8028 66.8902 70.7514 66.6755 70.6954 66.4702C70.6488 66.2555 70.6021 66.0502 70.5554 65.8542C70.5088 65.6488 70.4854 65.4482 70.4854 65.2522C70.4854 65.0002 70.5368 64.7528 70.6394 64.5102C70.7421 64.2582 70.8774 64.0295 71.0454 63.8242C71.2134 63.6095 71.4094 63.4275 71.6334 63.2782C71.8574 63.1288 72.0908 63.0262 72.3334 62.9702C72.4361 62.9982 72.5714 63.0822 72.7394 63.2222C72.9168 63.3528 73.0894 63.5022 73.2574 63.6702C73.4254 63.8382 73.5748 64.0108 73.7054 64.1882C73.8361 64.3562 73.9154 64.4962 73.9434 64.6082ZM69.3234 70.9922C69.5474 70.8988 69.7574 70.7635 69.9534 70.5862C70.1588 70.4088 70.3361 70.2082 70.4854 69.9842C70.6348 69.7602 70.7514 69.5222 70.8354 69.2702C70.9288 69.0182 70.9754 68.7708 70.9754 68.5282C70.7888 68.5562 70.5834 68.6448 70.3594 68.7942C70.1354 68.9342 69.9254 69.1068 69.7294 69.3122C69.5334 69.5082 69.3701 69.7135 69.2394 69.9282C69.1088 70.1428 69.0434 70.3295 69.0434 70.4882C69.0434 70.6935 69.1368 70.8615 69.3234 70.9922ZM73.9673 69.2422C73.9673 69.1582 73.972 69.0555 73.9813 68.9342C74 68.8035 74.028 68.6355 74.0653 68.4302C74.1026 68.2155 74.1493 67.9588 74.2053 67.6602C74.2706 67.3615 74.35 67.0022 74.4433 66.5822C74.462 66.4888 74.504 66.3395 74.5693 66.1342C74.6346 65.9288 74.7186 65.7142 74.8213 65.4902C74.9333 65.2568 75.064 65.0328 75.2133 64.8182C75.372 64.6035 75.5586 64.4448 75.7733 64.3422C75.932 64.3795 76.142 64.4775 76.4033 64.6362C76.6646 64.7855 76.8886 64.9955 77.0753 65.2662C76.8606 65.5088 76.6786 65.7515 76.5293 65.9942C76.3893 66.2368 76.2586 66.4888 76.1373 66.7502C76.0253 67.0115 75.918 67.2822 75.8153 67.5622C75.722 67.8422 75.6146 68.1362 75.4933 68.4442C75.3906 68.7055 75.2973 68.9762 75.2133 69.2562C75.1293 69.5268 75.0826 69.7648 75.0733 69.9702C75.0733 70.1382 75.0686 70.2548 75.0593 70.3202C75.0593 70.3948 75.036 70.4322 74.9893 70.4322C74.952 70.4322 74.8773 70.4088 74.7653 70.3622C74.6533 70.3155 74.5366 70.2455 74.4153 70.1522C74.3033 70.0495 74.2006 69.9235 74.1073 69.7742C74.014 69.6248 73.9673 69.4475 73.9673 69.2422ZM76.6413 63.1662C76.6413 63.1102 76.6553 63.0262 76.6833 62.9142C76.6366 62.8675 76.5946 62.7975 76.5573 62.7042C76.5293 62.6108 76.5153 62.5268 76.5153 62.4522C76.5153 62.3682 76.5246 62.2562 76.5433 62.1162C76.5713 61.9668 76.604 61.8082 76.6413 61.6402C76.6786 61.4722 76.7253 61.2995 76.7813 61.1222C76.8373 60.9355 76.8933 60.7675 76.9493 60.6182C77.0613 60.6182 77.1966 60.6508 77.3553 60.7162C77.5233 60.7722 77.6913 60.8515 77.8593 60.9542C78.0273 61.0475 78.1813 61.1548 78.3213 61.2762C78.4613 61.3882 78.5686 61.4955 78.6433 61.5982C78.5406 61.7008 78.4053 61.8455 78.2373 62.0322C78.0693 62.2095 77.906 62.4008 77.7473 62.6062C77.5886 62.8022 77.444 62.9888 77.3133 63.1662C77.1826 63.3435 77.0986 63.4695 77.0613 63.5442C76.9493 63.5255 76.8513 63.4788 76.7673 63.4042C76.6833 63.3202 76.6413 63.2408 76.6413 63.1662ZM74.4339 74.3522C74.4339 74.2962 74.4526 74.2448 74.4899 74.1982C74.5272 74.1515 74.5692 74.1048 74.6159 74.0582C74.7279 74.1608 74.8259 74.2402 74.9099 74.2962C74.9846 74.3522 75.0592 74.3988 75.1339 74.4362C75.1992 74.4735 75.2692 74.4968 75.3439 74.5062C75.4186 74.5155 75.5072 74.5202 75.6099 74.5202C76.0952 74.5202 76.5572 74.3895 76.9959 74.1282C77.4346 73.8762 77.8452 73.5075 78.2279 73.0222C78.6199 72.5368 78.9746 71.9442 79.2919 71.2442C79.6092 70.5442 79.8892 69.7508 80.1319 68.8642C80.0199 68.9762 79.8799 69.1022 79.7119 69.2422C79.5532 69.3728 79.3852 69.4988 79.2079 69.6202C79.0306 69.7415 78.8532 69.8535 78.6759 69.9562C78.5079 70.0588 78.3632 70.1335 78.2419 70.1802C78.0832 70.1522 77.9339 70.0868 77.7939 69.9842C77.6632 69.8722 77.5466 69.7368 77.4439 69.5782C77.3412 69.4195 77.2619 69.2422 77.2059 69.0462C77.1499 68.8408 77.1219 68.6262 77.1219 68.4022C77.1219 68.0382 77.1872 67.6648 77.3179 67.2822C77.4579 66.8995 77.6399 66.5262 77.8639 66.1622C78.0879 65.7888 78.3492 65.4388 78.6479 65.1122C78.9559 64.7855 79.2779 64.5008 79.6139 64.2582C79.9592 64.0155 80.3046 63.8242 80.6499 63.6842C81.0046 63.5348 81.3499 63.4602 81.6859 63.4602C82.0126 63.4602 82.2552 63.5302 82.4139 63.6702C82.5819 63.8008 82.7032 64.0295 82.7779 64.3562C82.6752 64.3002 82.5446 64.2722 82.3859 64.2722C82.1619 64.2722 81.9006 64.3608 81.6019 64.5382C81.3126 64.7155 81.0139 64.9488 80.7059 65.2382C80.4072 65.5182 80.1086 65.8448 79.8099 66.2182C79.5112 66.5822 79.2452 66.9555 79.0119 67.3382C78.7879 67.7208 78.6012 68.0942 78.4519 68.4582C78.3119 68.8222 78.2419 69.1488 78.2419 69.4382C78.2419 69.5035 78.2466 69.5455 78.2559 69.5642C78.2652 69.5735 78.2792 69.5782 78.2979 69.5782C78.3819 69.5782 78.4939 69.5315 78.6339 69.4382C78.7832 69.3448 78.9466 69.2282 79.1239 69.0882C79.3106 68.9388 79.5019 68.7708 79.6979 68.5842C79.8939 68.3882 80.0806 68.1922 80.2579 67.9962C80.6592 67.5482 81.0232 67.0488 81.3499 66.4982C81.6859 65.9382 81.9519 65.3968 82.1479 64.8742C82.3999 64.8928 82.6239 64.9348 82.8199 65.0002C83.0159 65.0655 83.1512 65.1355 83.2259 65.2102C82.9086 65.9382 82.6519 66.5495 82.4559 67.0442C82.2692 67.5388 82.1059 67.9775 81.9659 68.3602C81.7139 69.0322 81.4759 69.6435 81.2519 70.1942C81.0372 70.7542 80.8132 71.2675 80.5799 71.7342C80.3559 72.2102 80.1086 72.6488 79.8379 73.0502C79.5766 73.4608 79.2779 73.8528 78.9419 74.2262C78.7832 74.4035 78.6012 74.5575 78.3959 74.6882C78.1999 74.8282 77.9946 74.9448 77.7799 75.0382C77.5746 75.1315 77.3692 75.2015 77.1639 75.2482C76.9679 75.2948 76.7859 75.3182 76.6179 75.3182C76.3939 75.3182 76.1652 75.2902 75.9319 75.2342C75.6986 75.1875 75.4839 75.1175 75.2879 75.0242C75.0826 74.9402 74.9052 74.8375 74.7559 74.7162C74.6066 74.6042 74.4992 74.4828 74.4339 74.3522ZM85.8326 63.3902C86.0753 63.4648 86.304 63.6328 86.5186 63.8942C86.7333 64.1462 86.892 64.4262 86.9946 64.7342C86.892 64.9862 86.7333 65.2895 86.5186 65.6442C86.304 65.9988 86.0893 66.3628 85.8746 66.7362C85.66 67.1002 85.464 67.4502 85.2866 67.7862C85.1186 68.1128 85.0206 68.3835 84.9926 68.5982C85.142 68.4395 85.3053 68.2575 85.4826 68.0522C85.6693 67.8375 85.8466 67.6275 86.0146 67.4222C86.192 67.2075 86.3553 67.0162 86.5046 66.8482C86.654 66.6708 86.7706 66.5402 86.8546 66.4562C87.032 66.2695 87.242 66.0548 87.4846 65.8122C87.7273 65.5602 87.9793 65.3268 88.2406 65.1122C88.5113 64.8882 88.782 64.7015 89.0526 64.5522C89.3233 64.3935 89.5706 64.3142 89.7946 64.3142C90.0373 64.3142 90.238 64.3982 90.3966 64.5662C90.5646 64.7248 90.6953 64.8928 90.7886 65.0702C90.7886 65.0888 90.7513 65.1168 90.6766 65.1542C90.6113 65.1822 90.5133 65.2708 90.3826 65.4202C90.252 65.5882 90.1026 65.8215 89.9346 66.1202C89.776 66.4095 89.6173 66.7268 89.4586 67.0722C89.3093 67.4082 89.1833 67.7535 89.0806 68.1082C88.978 68.4628 88.9266 68.7848 88.9266 69.0742C88.9266 69.3075 88.9546 69.4568 89.0106 69.5222C89.076 69.5875 89.1646 69.6202 89.2766 69.6202C89.3793 69.6202 89.4866 69.5968 89.5986 69.5502C89.7106 69.5035 89.7993 69.4802 89.8646 69.4802C89.902 69.4988 89.93 69.5408 89.9486 69.6062C89.9766 69.6622 89.9906 69.7135 89.9906 69.7602C89.916 69.8255 89.8273 69.8908 89.7246 69.9562C89.622 70.0215 89.5146 70.0822 89.4026 70.1382C89.2906 70.1942 89.1786 70.2408 89.0666 70.2782C88.964 70.3155 88.8706 70.3342 88.7866 70.3342C88.516 70.3342 88.292 70.2922 88.1146 70.2082C87.9466 70.1335 87.8113 70.0308 87.7086 69.9002C87.6153 69.7695 87.55 69.6155 87.5126 69.4382C87.4753 69.2515 87.4566 69.0555 87.4566 68.8502C87.4566 68.7382 87.466 68.6122 87.4846 68.4722C87.5033 68.3322 87.5406 68.1688 87.5966 67.9822C87.6526 67.7862 87.732 67.5575 87.8346 67.2962C87.9373 67.0255 88.068 66.7035 88.2266 66.3302C88.208 66.3302 88.082 66.3955 87.8486 66.5262C87.6153 66.6568 87.3633 66.8575 87.0926 67.1282C86.654 67.5482 86.2573 67.9635 85.9026 68.3742C85.5573 68.7848 85.2026 69.2422 84.8386 69.7462C84.6333 70.0355 84.4513 70.2782 84.2926 70.4742C84.1433 70.6795 84.0126 70.8148 83.9006 70.8802C83.7046 70.7682 83.56 70.6095 83.4666 70.4042C83.3733 70.2082 83.3033 70.0028 83.2566 69.7882C83.2566 69.6108 83.28 69.3868 83.3266 69.1162C83.3826 68.8455 83.4526 68.5468 83.5366 68.2202C83.63 67.8842 83.742 67.5342 83.8726 67.1702C84.0033 66.8062 84.148 66.4422 84.3066 66.0782C84.6613 65.2568 84.9833 64.6128 85.2726 64.1462C85.5713 63.6795 85.758 63.4275 85.8326 63.3902Z" fill="white"/>
<path d="M32.6121 0.861468L32.6126 0.861714C32.8036 0.953521 32.9647 1.09737 33.0775 1.27668C33.1902 1.45599 33.25 1.66347 33.25 1.87523V1.87531C33.25 4.19226 34.1493 5.5506 35.135 7.01737L35.1349 7.0174L35.1404 7.02527L35.2102 7.12639C36.0413 8.36272 37 9.80848 37 11.8726C37 13.9785 35.939 15.8352 34.318 16.9386L33.498 17.4968L34.2585 18.1336C34.6695 18.4779 35.0407 18.9077 35.3672 19.4354C36.4432 21.1757 37 23.9409 37 28.1308C37 32.3544 36.4311 37.437 35.5063 41.4852L35.5063 41.4855C35.0467 43.5013 34.4844 45.3199 33.8332 46.6575L33.8298 46.6644L33.8266 46.6713C33.536 47.3004 33.1516 47.8819 32.6866 48.3958C32.2432 48.8468 31.6354 49.25 30.875 49.25C30.1139 49.25 29.5059 48.8459 29.0659 48.3958C28.5998 47.8835 28.2155 47.3024 27.9266 46.673L27.923 46.6649L27.9191 46.657C27.2658 45.3177 26.7038 43.5029 26.2444 41.4861C25.2811 37.097 24.7802 32.6192 24.75 28.1258C24.7502 23.9372 25.307 21.1752 26.3829 19.4352L26.3829 19.4352L26.3859 19.4302C26.6837 18.9403 27.0583 18.5015 27.4954 18.1304L28.2474 17.4921L27.4312 16.9381C26.6045 16.3769 25.9279 15.6219 25.4605 14.739C24.9931 13.8561 24.7492 12.8722 24.75 11.8733V11.8726V11.8716C24.75 10.9866 24.75 9.53792 25.6366 7.64727L25.6366 7.64725C26.5116 5.78103 28.2066 3.56972 31.4209 0.996435C31.5865 0.863998 31.7862 0.781043 31.997 0.757159C32.2078 0.733274 32.421 0.769438 32.6121 0.861468ZM33.239 8.2274L33.239 8.22739L33.237 8.22445C32.6631 7.37253 32.0334 6.432 31.5881 5.23318L31.1774 4.12779L30.3504 4.96832C28.9442 6.39746 28.1406 7.61041 27.6761 8.59965L27.676 8.5999C27.0004 10.0401 27 11.0903 27 11.8676V11.8701V11.8726C27 12.9002 27.4083 13.8856 28.135 14.6122C28.8618 15.3387 29.8474 15.7468 30.875 15.7468C31.9027 15.7468 32.8883 15.3387 33.615 14.6122C34.3417 13.8856 34.75 12.9002 34.75 11.8726C34.75 10.5167 34.1468 9.5777 33.2681 8.27106C33.2679 8.27069 33.2676 8.27033 33.2674 8.26996L33.239 8.2274ZM28.4364 40.9846C28.8813 42.9308 29.3962 44.556 29.94 45.6707C30.0421 45.8828 30.1396 46.0613 30.2298 46.2135L30.875 47.302L31.5202 46.2135C31.6104 46.0613 31.708 45.8828 31.81 45.6707C32.3538 44.5558 32.8687 42.9281 33.3136 40.9848L33.3136 40.9847C34.2014 37.1047 34.75 32.1898 34.75 28.1308C34.75 24.0578 34.1915 21.8237 33.4624 20.6312C33.204 20.1712 32.817 19.7963 32.3487 19.5526L32.3257 19.5406L32.3019 19.5303C31.8476 19.3325 31.3546 19.2394 30.8595 19.258C30.2927 19.2596 29.8176 19.3481 29.4172 19.5446L29.4092 19.5485L29.4013 19.5526C28.933 19.7963 28.5461 20.1712 28.2877 20.6311C27.5585 21.8237 27 24.0578 27 28.1308C27 32.1877 27.5511 37.1023 28.4363 40.9842L28.4364 40.9846ZM40.9967 28.1628C41.8836 28.6206 42.8352 28.9708 43.8342 29.1972L44.75 29.4047V28.4657V21.2451C44.75 20.4498 45.066 19.687 45.6286 19.1246C46.1912 18.5622 46.9543 18.2461 47.75 18.2461H57.75H58.5L58.5 17.4961C58.4999 15.2585 57.8738 13.0655 56.6925 11.1649C55.5112 9.26433 53.8219 7.73194 51.8153 6.74083C49.8087 5.74972 47.5648 5.3394 45.3373 5.55621C43.432 5.74165 41.6035 6.37957 40.0019 7.41092C39.6424 6.62798 39.2405 5.97091 38.8974 5.44697C40.8927 4.1887 43.1729 3.44323 45.5342 3.28288C48.139 3.10599 50.7423 3.64789 53.06 4.84941C55.3776 6.05093 57.3206 7.86589 58.6767 10.0961C60.0328 12.3264 60.75 14.8862 60.75 17.4961V18.2461H61.5H70.25C71.0457 18.2461 71.8088 18.5622 72.3714 19.1246C72.934 19.687 73.25 20.4498 73.25 21.2451V43.7392C73.25 44.5345 72.934 45.2973 72.3714 45.8597C71.8088 46.4222 71.0457 46.7382 70.25 46.7382H47.75C46.9543 46.7382 46.1912 46.4221 45.6286 45.8597C45.066 45.2973 44.75 44.5345 44.75 43.7392V33.1735V32.2872V32.2847H44.0004L44.124 31.5475C43.0306 31.3642 41.963 31.053 40.9433 30.6208C40.9784 29.8019 40.9961 28.9824 40.9967 28.1628ZM47.6872 31.6973L47 31.755V32.4447V43.7417V44.4917H47.75H70.25H71V43.7417V21.2477V20.4977H70.25H61.025H60.4443L60.2989 21.0599C59.5589 23.9211 57.9478 26.4816 55.6884 28.3874C53.429 30.2931 50.633 31.4498 47.6872 31.6973ZM57.817 21.498L58.1712 20.4977H57.11H47.75H47V21.2477V28.6782V29.5169L47.8335 29.4235C50.0739 29.1724 52.1983 28.2959 53.9639 26.8944C55.7294 25.4928 57.0647 23.6227 57.817 21.498ZM24.9577 7.32894L24.9575 7.32886L24.9577 7.32894Z" fill="url(#paint0_linear_1_59)" stroke="white" stroke-width="1.5"/>
<defs>
<linearGradient id="paint0_linear_1_59" x1="49" y1="0" x2="49" y2="50" gradientUnits="userSpaceOnUse">
<stop stop-color="#503F2A"/>
<stop offset="1" stop-color="white" stop-opacity="0"/>
</linearGradient>
</defs>
</svg>
