<svg width="34" height="33" viewBox="0 0 34 33" fill="none" xmlns="http://www.w3.org/2000/svg">
<path d="M16.9999 0.333344C14.8112 0.333344 12.644 0.76444 10.6219 1.60202C8.59977 2.4396 6.76245 3.66725 5.21481 5.2149C2.0892 8.3405 0.333252 12.5797 0.333252 17C0.333252 24.3667 5.11659 30.6167 11.7333 32.8333C12.5666 32.9667 12.8333 32.45 12.8333 32V29.1833C8.21659 30.1833 7.23325 26.95 7.23325 26.95C6.46658 25.0167 5.38325 24.5 5.38325 24.5C3.86659 23.4667 5.49992 23.5 5.49992 23.5C7.16658 23.6167 8.04992 25.2167 8.04992 25.2167C9.49992 27.75 11.9499 27 12.8999 26.6C13.0499 25.5167 13.4833 24.7833 13.9499 24.3667C10.2499 23.95 6.36658 22.5167 6.36658 16.1667C6.36658 14.3167 6.99992 12.8333 8.08325 11.65C7.91659 11.2333 7.33325 9.50001 8.24992 7.25001C8.24992 7.25001 9.64992 6.80001 12.8333 8.95001C14.1499 8.58334 15.5833 8.40001 16.9999 8.40001C18.4166 8.40001 19.8499 8.58334 21.1666 8.95001C24.3499 6.80001 25.7499 7.25001 25.7499 7.25001C26.6666 9.50001 26.0833 11.2333 25.9166 11.65C26.9999 12.8333 27.6332 14.3167 27.6332 16.1667C27.6332 22.5333 23.7333 23.9333 20.0166 24.35C20.6166 24.8667 21.1666 25.8833 21.1666 27.4333V32C21.1666 32.45 21.4333 32.9833 22.2833 32.8333C28.8999 30.6 33.6666 24.3667 33.6666 17C33.6666 14.8113 33.2355 12.644 32.3979 10.622C31.5603 8.59986 30.3327 6.76254 28.785 5.2149C27.2374 3.66725 25.4001 2.4396 23.378 1.60202C21.3559 0.76444 19.1886 0.333344 16.9999 0.333344V0.333344Z" fill="#F0F3F6"/>
</svg>
